M48
; DRILL file KiCad 10.0.3 date 2026-06-05T18:09:24
; FORMAT={-:-/ absolute / metric / decimal}
; #@! TF.CreationDate,2026-06-05T18:09:24+05:30
; #@! TF.GenerationSoftware,Kicad,Pcbnew,10.0.3
; #@! TF.FileFunction,Plated,1,2,PTH
FMAT,2
METRIC
; #@! TA.AperFunction,Plated,PTH,ViaDrill
T1C0.300
; #@! TA.AperFunction,Plated,PTH,ComponentDrill
T2C0.900
; #@! TA.AperFunction,Plated,PTH,ComponentDrill
T3C1.016
%
G90
G05
T1
X92.724Y-82.656
X93.969Y-82.125
X93.98Y-83.82
X93.98Y-86.868
X93.98Y-88.392
X94.488Y-80.772
X94.488Y-89.916
X94.848Y-86.674
X95.504Y-88.392
X95.672Y-84.862
X96.061Y-82.631
X96.133Y-84.139
X96.493Y-86.318
X96.52Y-80.264
X97.008Y-84.498
X98.044Y-83.312
X98.044Y-88.9
X104.648Y-77.216
T2
X102.87Y-80.264
X103.886Y-89.408
X105.41Y-80.264
X106.426Y-89.408
T3
X75.184Y-82.073
X75.184Y-84.613
X75.184Y-87.153
X83.312Y-82.073
X83.312Y-84.613
X83.312Y-87.153
X90.424Y-82.073
X90.424Y-84.613
X90.424Y-87.153
M30
