%TF.GenerationSoftware,KiCad,Pcbnew,10.0.3*%
%TF.CreationDate,2026-06-13T13:31:34+05:30*%
%TF.ProjectId,mcu,6d63752e-6b69-4636-9164-5f7063625858,rev?*%
%TF.SameCoordinates,Original*%
%TF.FileFunction,Copper,L2,Bot*%
%TF.FilePolarity,Positive*%
%FSLAX46Y46*%
G04 Gerber Fmt 4.6, Leading zero omitted, Abs format (unit mm)*
G04 Created by KiCad (PCBNEW 10.0.3) date 2026-06-13 13:31:34*
%MOMM*%
%LPD*%
G01*
G04 APERTURE LIST*
%TA.AperFunction,ComponentPad*%
%ADD10R,1.700000X1.700000*%
%TD*%
%TA.AperFunction,ComponentPad*%
%ADD11C,1.700000*%
%TD*%
%TA.AperFunction,ViaPad*%
%ADD12C,0.600000*%
%TD*%
%TA.AperFunction,ViaPad*%
%ADD13C,0.900000*%
%TD*%
%TA.AperFunction,Conductor*%
%ADD14C,0.200000*%
%TD*%
%TA.AperFunction,Conductor*%
%ADD15C,0.350000*%
%TD*%
G04 APERTURE END LIST*
D10*
%TO.P,J4,1,Pin_1_1*%
%TO.N,/MISO*%
X172969000Y-82296000D03*
D11*
%TO.P,J4,2,Pin_2_2*%
%TO.N,/VCC*%
X175509000Y-82296000D03*
%TO.P,J4,3,Pin_3_3*%
%TO.N,/SCL*%
X172969000Y-84836000D03*
%TO.P,J4,4,Pin_4_4*%
%TO.N,/MOSI*%
X175509000Y-84836000D03*
%TO.P,J4,5,Pin_5_5*%
%TO.N,/RESET*%
X172969000Y-87376000D03*
%TO.P,J4,6,Pin_6_6*%
%TO.N,GND*%
X175509000Y-87376000D03*
%TD*%
D10*
%TO.P,J3,1,Pin_1_1*%
%TO.N,/D2*%
X135636000Y-106172000D03*
D11*
%TO.P,J3,2,Pin_2_2*%
%TO.N,/D3*%
X138176000Y-106172000D03*
%TO.P,J3,3,Pin_3_3*%
%TO.N,/D4*%
X140716000Y-106172000D03*
%TO.P,J3,4,Pin_4_4*%
%TO.N,/D5*%
X143256000Y-106172000D03*
%TO.P,J3,5,Pin_5_5*%
%TO.N,/D6*%
X145796000Y-106172000D03*
%TO.P,J3,6,Pin_6_6*%
%TO.N,/D7*%
X148336000Y-106172000D03*
%TO.P,J3,7,Pin_7_7*%
%TO.N,/D8*%
X150876000Y-106172000D03*
%TO.P,J3,8,Pin_8_8*%
%TO.N,GND*%
X153416000Y-106172000D03*
%TO.P,J3,9,Pin_9_9*%
%TO.N,/VCC*%
X155956000Y-106172000D03*
%TD*%
D10*
%TO.P,J2,1,Pin_1_1*%
%TO.N,GND*%
X160782000Y-106172000D03*
D11*
%TO.P,J2,2,Pin_2_2*%
%TO.N,/VCC*%
X163322000Y-106172000D03*
%TO.P,J2,3,Pin_3_3*%
%TO.N,/RX*%
X165862000Y-106172000D03*
%TO.P,J2,4,Pin_4_4*%
%TO.N,/TX*%
X168402000Y-106172000D03*
%TD*%
D10*
%TO.P,J1,1,Pin_1_1*%
%TO.N,GND*%
X175260000Y-92202000D03*
D11*
%TO.P,J1,2,Pin_2_2*%
%TO.N,/VCC*%
X175260000Y-94742000D03*
%TO.P,J1,3,Pin_3_3*%
%TO.N,/SDA*%
X175260000Y-97282000D03*
%TO.P,J1,4,Pin_4_4*%
%TO.N,/SCL*%
X175260000Y-99822000D03*
%TD*%
D10*
%TO.P,BT1,1,+_1*%
%TO.N,Net-(BT1-+)*%
X131572000Y-86609000D03*
D11*
%TO.P,BT1,2,-_2*%
%TO.N,GND*%
X131572000Y-89149000D03*
%TD*%
D12*
%TO.N,/MOSI*%
X157480000Y-95088000D03*
X174718821Y-86220311D03*
%TO.N,/SCL*%
X169545000Y-91361673D03*
X174752000Y-89916000D03*
X157988000Y-83404000D03*
X159512000Y-85852000D03*
%TO.N,Net-(U4-AREF)*%
X155956000Y-89408000D03*
X157988000Y-93472000D03*
%TO.N,/SCL*%
X161036000Y-91948000D03*
X158496000Y-91948000D03*
%TO.N,/VCC*%
X171236765Y-84795235D03*
%TO.N,/SCL*%
X170180000Y-80264000D03*
X171196000Y-83312000D03*
%TO.N,Net-(U4-XTAL1{slash}PB6)*%
X154940000Y-101600000D03*
%TO.N,Net-(BT1-+)*%
X145686400Y-88392000D03*
%TO.N,Net-(U4-XTAL1{slash}PB6)*%
X146086400Y-89408000D03*
X150368000Y-90424000D03*
D13*
%TO.N,GND*%
X144890474Y-87265526D03*
D12*
X150876000Y-87192000D03*
%TO.N,Net-(U4-XTAL2{slash}PB7)*%
X162052000Y-94488000D03*
%TO.N,/SDA*%
X163068000Y-87376000D03*
X169672000Y-93472000D03*
%TO.N,/TX*%
X152059473Y-85760000D03*
%TO.N,/RX*%
X152908000Y-85760000D03*
%TO.N,/VCC*%
X164996500Y-88900000D03*
%TO.N,/RESET*%
X152400000Y-82804000D03*
%TO.N,Net-(BT1-+)*%
X152337800Y-90392000D03*
X143764000Y-89408000D03*
%TO.N,/SCL*%
X153416000Y-82154000D03*
%TO.N,/SDA*%
X141224000Y-83312000D03*
X141366000Y-94996000D03*
%TO.N,Net-(U4-XTAL2{slash}PB7)*%
X150876000Y-95504000D03*
X148844000Y-92964000D03*
%TO.N,/SDA*%
X154432000Y-85344000D03*
D13*
%TO.N,GND*%
X151892000Y-78740000D03*
D12*
X160241000Y-79535000D03*
%TO.N,/VCC*%
X139700000Y-91440000D03*
X139192000Y-84455000D03*
X143256000Y-98552000D03*
X137160000Y-98552000D03*
%TO.N,/SDA*%
X141224000Y-88392000D03*
%TO.N,/SCL*%
X140208000Y-83312000D03*
X140208000Y-86868000D03*
D13*
%TO.N,GND*%
X135636000Y-94996000D03*
X136144000Y-82296000D03*
D12*
X134112000Y-88265000D03*
%TD*%
%TO.N,/VCC*%
D14*
X172346000Y-83686000D02*
X171236765Y-84795235D01*
X175241600Y-83686000D02*
X172346000Y-83686000D01*
X175509000Y-83418600D02*
X175241600Y-83686000D01*
X175509000Y-82296000D02*
X175509000Y-83418600D01*
%TO.N,GND*%
D15*
X177875000Y-79958000D02*
X177452000Y-79535000D01*
X175509000Y-87376000D02*
X177875000Y-85010000D01*
X177875000Y-85010000D02*
X177875000Y-79958000D01*
X177452000Y-79535000D02*
X160241000Y-79535000D01*
X159311000Y-107643000D02*
X160782000Y-106172000D01*
X155268000Y-107643000D02*
X159311000Y-107643000D01*
X153797000Y-106172000D02*
X155268000Y-107643000D01*
X153416000Y-106172000D02*
X153797000Y-106172000D01*
%TO.N,/SCL*%
D14*
X176460000Y-90860403D02*
X175515597Y-89916000D01*
X176460000Y-98622000D02*
X176460000Y-90860403D01*
X175260000Y-99822000D02*
X176460000Y-98622000D01*
X175515597Y-89916000D02*
X174752000Y-89916000D01*
%TO.N,/VCC*%
X155956000Y-104521000D02*
X155956000Y-106172000D01*
X149987000Y-98552000D02*
X155956000Y-104521000D01*
X143256000Y-98552000D02*
X149987000Y-98552000D01*
X134584000Y-108168000D02*
X161326000Y-108168000D01*
X134112000Y-107696000D02*
X134584000Y-108168000D01*
X134112000Y-101600000D02*
X134112000Y-107696000D01*
X161326000Y-108168000D02*
X163322000Y-106172000D01*
X137160000Y-98552000D02*
X134112000Y-101600000D01*
%TO.N,/MOSI*%
X157572000Y-95088000D02*
X157480000Y-95088000D01*
X164472000Y-101988000D02*
X157572000Y-95088000D01*
X165935654Y-108112000D02*
X164472000Y-106648346D01*
X177568000Y-108112000D02*
X165935654Y-108112000D01*
X177800000Y-91634717D02*
X177800000Y-107880000D01*
X174309000Y-88143717D02*
X177800000Y-91634717D01*
X164472000Y-106648346D02*
X164472000Y-101988000D01*
X174718821Y-86220311D02*
X174309000Y-86630132D01*
X177800000Y-107880000D02*
X177568000Y-108112000D01*
X174309000Y-86630132D02*
X174309000Y-88143717D01*
%TO.N,/RX*%
X154183471Y-84744000D02*
X153167471Y-85760000D01*
X154680529Y-84744000D02*
X154183471Y-84744000D01*
X155032000Y-85095471D02*
X154680529Y-84744000D01*
X155032000Y-85592529D02*
X155032000Y-85095471D01*
X154680529Y-85944000D02*
X155032000Y-85592529D01*
X154524000Y-85944000D02*
X154680529Y-85944000D01*
X160128000Y-91548000D02*
X154524000Y-85944000D01*
X160587471Y-91548000D02*
X160128000Y-91548000D01*
X153167471Y-85760000D02*
X152908000Y-85760000D01*
X161636000Y-92196529D02*
X161636000Y-91699471D01*
X161284529Y-92548000D02*
X161636000Y-92196529D01*
X161284529Y-91348000D02*
X160787471Y-91348000D01*
X165862000Y-97282000D02*
X161128000Y-92548000D01*
X161128000Y-92548000D02*
X161284529Y-92548000D01*
X165862000Y-106172000D02*
X165862000Y-97282000D01*
X161636000Y-91699471D02*
X161284529Y-91348000D01*
X160787471Y-91348000D02*
X160587471Y-91548000D01*
%TO.N,/TX*%
X153491473Y-84328000D02*
X152059473Y-85760000D01*
X153774315Y-84328000D02*
X153491473Y-84328000D01*
X154006843Y-84095471D02*
X153774315Y-84328000D01*
X154572529Y-84329785D02*
X154338214Y-84095471D01*
X154572529Y-84344000D02*
X154572529Y-84329785D01*
X154846214Y-84344000D02*
X154572529Y-84344000D01*
X155432000Y-84929785D02*
X154846214Y-84344000D01*
X155432000Y-85758214D02*
X155432000Y-84929785D01*
X155167950Y-86022264D02*
X155432000Y-85758214D01*
X160293686Y-91148000D02*
X155167950Y-86022264D01*
X160421784Y-91148000D02*
X160293686Y-91148000D01*
X160621785Y-90948000D02*
X160421784Y-91148000D01*
X162036000Y-92362214D02*
X162036000Y-91533785D01*
X162036000Y-91533785D02*
X161450214Y-90948000D01*
X161771950Y-92626264D02*
X162036000Y-92362214D01*
X166262000Y-97174000D02*
X166262000Y-97116314D01*
X166262000Y-97116314D02*
X161771950Y-92626264D01*
X161450214Y-90948000D02*
X160621785Y-90948000D01*
X168402000Y-99314000D02*
X166262000Y-97174000D01*
X154338214Y-84095471D02*
X154006843Y-84095471D01*
X168402000Y-106172000D02*
X168402000Y-99314000D01*
%TO.N,/SDA*%
X151810944Y-86360000D02*
X153416000Y-86360000D01*
X151459473Y-86008529D02*
X151810944Y-86360000D01*
X153416000Y-86360000D02*
X154432000Y-85344000D01*
X151459473Y-85852000D02*
X151459473Y-86008529D01*
X151459473Y-85852000D02*
X143764000Y-85852000D01*
X143764000Y-85852000D02*
X141224000Y-83312000D01*
%TO.N,/SCL*%
X159512000Y-84928000D02*
X157988000Y-83404000D01*
X159512000Y-85852000D02*
X159512000Y-84928000D01*
%TO.N,Net-(U4-AREF)*%
X155956000Y-91440000D02*
X155956000Y-89408000D01*
X157988000Y-93472000D02*
X155956000Y-91440000D01*
%TO.N,/SCL*%
X158496000Y-91948000D02*
X161036000Y-91948000D01*
X170180000Y-82296000D02*
X170180000Y-80264000D01*
X171196000Y-83312000D02*
X170180000Y-82296000D01*
%TO.N,Net-(U4-XTAL1{slash}PB6)*%
X152586329Y-89792000D02*
X151000000Y-89792000D01*
X152937800Y-90143471D02*
X152586329Y-89792000D01*
X151738329Y-91840000D02*
X152937800Y-90640529D01*
X148952000Y-91840000D02*
X151738329Y-91840000D01*
X148244000Y-92548000D02*
X148952000Y-91840000D01*
X148244000Y-94904000D02*
X148244000Y-92548000D01*
X151000000Y-89792000D02*
X150368000Y-90424000D01*
X154940000Y-101600000D02*
X148244000Y-94904000D01*
X152937800Y-90640529D02*
X152937800Y-90143471D01*
%TO.N,Net-(BT1-+)*%
X144670400Y-89408000D02*
X143764000Y-89408000D01*
X145686400Y-88392000D02*
X144670400Y-89408000D01*
%TO.N,Net-(U4-XTAL2{slash}PB7)*%
X151892000Y-94488000D02*
X150876000Y-95504000D01*
X162052000Y-94488000D02*
X151892000Y-94488000D01*
X148844000Y-93472000D02*
X148844000Y-92964000D01*
X150876000Y-95504000D02*
X148844000Y-93472000D01*
%TO.N,/SDA*%
X163068000Y-87884000D02*
X163068000Y-87376000D01*
X169672000Y-93472000D02*
X168656000Y-93472000D01*
X168656000Y-93472000D02*
X163068000Y-87884000D01*
%TO.N,/VCC*%
X175260000Y-94742000D02*
X169418000Y-88900000D01*
X169418000Y-88900000D02*
X164996500Y-88900000D01*
%TO.N,/RESET*%
X172969000Y-87376000D02*
X168397000Y-82804000D01*
X168397000Y-82804000D02*
X152400000Y-82804000D01*
%TO.N,/SCL*%
X141366000Y-82154000D02*
X153416000Y-82154000D01*
X140208000Y-83312000D02*
X141366000Y-82154000D01*
%TO.N,Net-(BT1-+)*%
X145796000Y-91440000D02*
X151289800Y-91440000D01*
X143764000Y-89408000D02*
X145796000Y-91440000D01*
X151289800Y-91440000D02*
X152337800Y-90392000D01*
%TO.N,/SDA*%
X141224000Y-94854000D02*
X141366000Y-94996000D01*
X141224000Y-88392000D02*
X141224000Y-94854000D01*
%TO.N,/VCC*%
X174752000Y-94742000D02*
X175260000Y-94742000D01*
%TO.N,GND*%
D15*
X159446000Y-78740000D02*
X160241000Y-79535000D01*
X151892000Y-78740000D02*
X159446000Y-78740000D01*
%TO.N,/VCC*%
D14*
X139700000Y-94996000D02*
X139700000Y-91440000D01*
X143256000Y-98552000D02*
X139700000Y-94996000D01*
X139192000Y-90932000D02*
X139192000Y-84455000D01*
X139700000Y-91440000D02*
X139192000Y-90932000D01*
X143256000Y-98552000D02*
X137160000Y-98552000D01*
%TO.N,/SCL*%
X140208000Y-83312000D02*
X140208000Y-86868000D01*
%TO.N,GND*%
D15*
X135636000Y-94996000D02*
X134112000Y-93472000D01*
X134112000Y-93472000D02*
X134112000Y-88265000D01*
X136144000Y-82296000D02*
X134112000Y-84328000D01*
X134112000Y-84328000D02*
X134112000Y-88265000D01*
%TO.N,/SDA*%
D14*
X141224000Y-83312000D02*
X141224000Y-88392000D01*
%TO.N,Net-(U4-XTAL1{slash}PB6)*%
X146086400Y-89408000D02*
X146594400Y-89916000D01*
X146594400Y-89916000D02*
X149860000Y-89916000D01*
X149860000Y-89916000D02*
X150368000Y-90424000D01*
%TO.N,GND*%
D15*
X145000948Y-87376000D02*
X150692000Y-87376000D01*
X144890474Y-87265526D02*
X145000948Y-87376000D01*
X150692000Y-87376000D02*
X150876000Y-87192000D01*
%TD*%
%TA.AperFunction,Conductor*%
%TO.N,GND*%
G36*
X177992539Y-75252185D02*
G01*
X178038294Y-75304989D01*
X178049500Y-75356500D01*
X178049500Y-90735619D01*
X178029815Y-90802658D01*
X177977011Y-90848413D01*
X177907853Y-90858357D01*
X177844297Y-90829332D01*
X177837819Y-90823300D01*
X175879261Y-88864742D01*
X175845776Y-88803419D01*
X175850760Y-88733727D01*
X175892632Y-88677794D01*
X175928624Y-88659130D01*
X176027217Y-88627095D01*
X176216554Y-88530622D01*
X176270716Y-88491270D01*
X176270717Y-88491270D01*
X175638409Y-87858962D01*
X175701993Y-87841925D01*
X175816007Y-87776099D01*
X175909099Y-87683007D01*
X175974925Y-87568993D01*
X175991962Y-87505408D01*
X176624270Y-88137717D01*
X176624270Y-88137716D01*
X176663622Y-88083554D01*
X176760095Y-87894217D01*
X176825757Y-87692130D01*
X176825757Y-87692127D01*
X176859000Y-87482246D01*
X176859000Y-87269753D01*
X176825757Y-87059872D01*
X176825757Y-87059869D01*
X176760095Y-86857782D01*
X176663624Y-86668449D01*
X176624270Y-86614282D01*
X176624269Y-86614282D01*
X175991962Y-87246590D01*
X175974925Y-87183007D01*
X175909099Y-87068993D01*
X175816007Y-86975901D01*
X175701993Y-86910075D01*
X175638407Y-86893036D01*
X176270716Y-86260728D01*
X176216547Y-86221373D01*
X176216547Y-86221372D01*
X176207500Y-86216763D01*
X176156706Y-86168788D01*
X176139912Y-86100966D01*
X176162451Y-86034832D01*
X176207508Y-85995793D01*
X176216816Y-85991051D01*
X176306217Y-85926098D01*
X176388786Y-85866109D01*
X176388788Y-85866106D01*
X176388792Y-85866104D01*
X176539104Y-85715792D01*
X176539106Y-85715788D01*
X176539109Y-85715786D01*
X176664048Y-85543820D01*
X176664047Y-85543820D01*
X176664051Y-85543816D01*
X176760557Y-85354412D01*
X176826246Y-85152243D01*
X176859500Y-84942287D01*
X176859500Y-84729713D01*
X176826246Y-84519757D01*
X176760557Y-84317588D01*
X176664051Y-84128184D01*
X176664049Y-84128181D01*
X176664048Y-84128179D01*
X176539109Y-83956213D01*
X176388786Y-83805890D01*
X176216815Y-83680948D01*
X176216812Y-83680946D01*
X176208050Y-83676481D01*
X176157256Y-83628505D01*
X176140463Y-83560683D01*
X176163003Y-83494549D01*
X176208056Y-83455514D01*
X176216816Y-83451051D01*
X176388792Y-83326104D01*
X176539104Y-83175792D01*
X176539106Y-83175788D01*
X176539109Y-83175786D01*
X176664048Y-83003820D01*
X176664047Y-83003820D01*
X176664051Y-83003816D01*
X176760557Y-82814412D01*
X176826246Y-82612243D01*
X176859500Y-82402287D01*
X176859500Y-82189713D01*
X176826246Y-81979757D01*
X176760557Y-81777588D01*
X176664051Y-81588184D01*
X176664049Y-81588181D01*
X176664048Y-81588179D01*
X176539109Y-81416213D01*
X176388786Y-81265890D01*
X176216820Y-81140951D01*
X176027414Y-81044444D01*
X176027413Y-81044443D01*
X176027412Y-81044443D01*
X175825243Y-80978754D01*
X175825241Y-80978753D01*
X175825240Y-80978753D01*
X175663957Y-80953208D01*
X175615287Y-80945500D01*
X175402713Y-80945500D01*
X175354042Y-80953208D01*
X175192760Y-80978753D01*
X174990585Y-81044444D01*
X174801179Y-81140951D01*
X174629215Y-81265889D01*
X174515673Y-81379431D01*
X174454350Y-81412915D01*
X174384658Y-81407931D01*
X174328725Y-81366059D01*
X174311810Y-81335082D01*
X174262797Y-81203671D01*
X174262793Y-81203664D01*
X174176547Y-81088455D01*
X174176544Y-81088452D01*
X174061335Y-81002206D01*
X174061328Y-81002202D01*
X173926482Y-80951908D01*
X173926483Y-80951908D01*
X173866883Y-80945501D01*
X173866881Y-80945500D01*
X173866873Y-80945500D01*
X173866864Y-80945500D01*
X172071129Y-80945500D01*
X172071123Y-80945501D01*
X172011516Y-80951908D01*
X171876671Y-81002202D01*
X171876664Y-81002206D01*
X171761455Y-81088452D01*
X171761452Y-81088455D01*
X171675206Y-81203664D01*
X171675202Y-81203671D01*
X171624908Y-81338517D01*
X171618501Y-81398116D01*
X171618500Y-81398135D01*
X171618500Y-82434971D01*
X171598815Y-82502010D01*
X171546011Y-82547765D01*
X171476853Y-82557709D01*
X171466641Y-82555801D01*
X171456581Y-82553481D01*
X171429497Y-82542263D01*
X171274842Y-82511500D01*
X171274498Y-82511500D01*
X171270482Y-82510574D01*
X171241599Y-82494334D01*
X171212238Y-82478976D01*
X171210660Y-82477425D01*
X170816819Y-82083584D01*
X170783334Y-82022261D01*
X170780500Y-81995903D01*
X170780500Y-80843765D01*
X170800185Y-80776726D01*
X170801398Y-80774874D01*
X170889390Y-80643185D01*
X170889390Y-80643184D01*
X170889394Y-80643179D01*
X170949737Y-80497497D01*
X170980500Y-80342842D01*
X170980500Y-80185158D01*
X170980500Y-80185155D01*
X170980499Y-80185153D01*
X170949738Y-80030510D01*
X170949737Y-80030503D01*
X170949735Y-80030498D01*
X170889397Y-79884827D01*
X170889390Y-79884814D01*
X170801789Y-79753711D01*
X170801786Y-79753707D01*
X170690292Y-79642213D01*
X170690288Y-79642210D01*
X170559185Y-79554609D01*
X170559172Y-79554602D01*
X170413501Y-79494264D01*
X170413489Y-79494261D01*
X170258845Y-79463500D01*
X170258842Y-79463500D01*
X170101158Y-79463500D01*
X170101155Y-79463500D01*
X169946510Y-79494261D01*
X169946498Y-79494264D01*
X169800827Y-79554602D01*
X169800814Y-79554609D01*
X169669711Y-79642210D01*
X169669707Y-79642213D01*
X169558213Y-79753707D01*
X169558210Y-79753711D01*
X169470609Y-79884814D01*
X169470602Y-79884827D01*
X169410264Y-80030498D01*
X169410261Y-80030510D01*
X169379500Y-80185153D01*
X169379500Y-80342846D01*
X169410261Y-80497489D01*
X169410264Y-80497501D01*
X169470602Y-80643172D01*
X169470609Y-80643185D01*
X169558602Y-80774874D01*
X169579480Y-80841551D01*
X169579500Y-80843765D01*
X169579500Y-82209330D01*
X169579499Y-82209348D01*
X169579499Y-82375054D01*
X169579498Y-82375054D01*
X169620423Y-82527785D01*
X169628782Y-82542263D01*
X169699477Y-82664712D01*
X169699481Y-82664717D01*
X169818349Y-82783585D01*
X169818355Y-82783590D01*
X170361425Y-83326660D01*
X170394910Y-83387983D01*
X170395361Y-83390149D01*
X170426261Y-83545491D01*
X170426264Y-83545501D01*
X170486602Y-83691172D01*
X170486608Y-83691183D01*
X170498358Y-83708768D01*
X170519235Y-83775446D01*
X170500750Y-83842826D01*
X170448771Y-83889515D01*
X170379801Y-83900691D01*
X170315737Y-83872805D01*
X170307574Y-83865339D01*
X168884590Y-82442355D01*
X168884588Y-82442352D01*
X168765717Y-82323481D01*
X168765716Y-82323480D01*
X168678904Y-82273360D01*
X168678904Y-82273359D01*
X168678900Y-82273358D01*
X168628785Y-82244423D01*
X168476057Y-82203499D01*
X168317943Y-82203499D01*
X168310347Y-82203499D01*
X168310331Y-82203500D01*
X154340500Y-82203500D01*
X154273461Y-82183815D01*
X154227706Y-82131011D01*
X154216500Y-82079500D01*
X154216500Y-82075155D01*
X154216499Y-82075153D01*
X154185738Y-81920510D01*
X154185737Y-81920503D01*
X154129728Y-81785284D01*
X154125397Y-81774827D01*
X154125390Y-81774814D01*
X154037789Y-81643711D01*
X154037786Y-81643707D01*
X153926292Y-81532213D01*
X153926288Y-81532210D01*
X153795185Y-81444609D01*
X153795172Y-81444602D01*
X153649501Y-81384264D01*
X153649489Y-81384261D01*
X153494845Y-81353500D01*
X153494842Y-81353500D01*
X153337158Y-81353500D01*
X153337155Y-81353500D01*
X153182510Y-81384261D01*
X153182498Y-81384264D01*
X153036827Y-81444602D01*
X153036814Y-81444609D01*
X152905125Y-81532602D01*
X152838447Y-81553480D01*
X152836234Y-81553500D01*
X141445057Y-81553500D01*
X141286942Y-81553500D01*
X141134215Y-81594423D01*
X141134214Y-81594423D01*
X141134212Y-81594424D01*
X141134209Y-81594425D01*
X141084096Y-81623359D01*
X141084095Y-81623360D01*
X141048853Y-81643707D01*
X140997285Y-81673479D01*
X140997282Y-81673481D01*
X140193339Y-82477425D01*
X140132016Y-82510910D01*
X140129850Y-82511361D01*
X139974508Y-82542261D01*
X139974498Y-82542264D01*
X139828827Y-82602602D01*
X139828814Y-82602609D01*
X139697711Y-82690210D01*
X139697707Y-82690213D01*
X139586213Y-82801707D01*
X139586210Y-82801711D01*
X139498609Y-82932814D01*
X139498602Y-82932827D01*
X139438264Y-83078498D01*
X139438261Y-83078510D01*
X139407500Y-83233153D01*
X139407500Y-83390846D01*
X139431530Y-83511651D01*
X139425303Y-83581242D01*
X139382440Y-83636420D01*
X139316550Y-83659664D01*
X139285723Y-83657460D01*
X139270842Y-83654500D01*
X139113158Y-83654500D01*
X139113155Y-83654500D01*
X138958510Y-83685261D01*
X138958498Y-83685264D01*
X138812827Y-83745602D01*
X138812814Y-83745609D01*
X138681711Y-83833210D01*
X138681707Y-83833213D01*
X138570213Y-83944707D01*
X138570210Y-83944711D01*
X138482609Y-84075814D01*
X138482602Y-84075827D01*
X138422264Y-84221498D01*
X138422261Y-84221510D01*
X138391500Y-84376153D01*
X138391500Y-84533846D01*
X138422261Y-84688489D01*
X138422264Y-84688501D01*
X138482602Y-84834172D01*
X138482609Y-84834185D01*
X138570602Y-84965874D01*
X138591480Y-85032551D01*
X138591500Y-85034765D01*
X138591500Y-90845330D01*
X138591499Y-90845348D01*
X138591499Y-91011054D01*
X138591498Y-91011054D01*
X138627974Y-91147184D01*
X138632423Y-91163785D01*
X138649002Y-91192500D01*
X138701154Y-91282831D01*
X138711479Y-91300714D01*
X138711481Y-91300717D01*
X138830349Y-91419585D01*
X138830355Y-91419590D01*
X138865425Y-91454660D01*
X138898910Y-91515983D01*
X138899361Y-91518149D01*
X138930261Y-91673491D01*
X138930264Y-91673501D01*
X138990602Y-91819172D01*
X138990609Y-91819185D01*
X139078602Y-91950874D01*
X139099480Y-92017551D01*
X139099500Y-92019765D01*
X139099500Y-94909330D01*
X139099499Y-94909348D01*
X139099499Y-95075054D01*
X139099498Y-95075054D01*
X139109728Y-95113233D01*
X139140423Y-95227785D01*
X139157716Y-95257737D01*
X139165085Y-95270499D01*
X139165086Y-95270503D01*
X139165087Y-95270503D01*
X139194524Y-95321491D01*
X139219479Y-95364714D01*
X139219481Y-95364717D01*
X139338349Y-95483585D01*
X139338355Y-95483590D01*
X141594584Y-97739819D01*
X141628069Y-97801142D01*
X141623085Y-97870834D01*
X141581213Y-97926767D01*
X141515749Y-97951184D01*
X141506903Y-97951500D01*
X137739766Y-97951500D01*
X137672727Y-97931815D01*
X137670875Y-97930602D01*
X137539185Y-97842609D01*
X137539172Y-97842602D01*
X137393501Y-97782264D01*
X137393489Y-97782261D01*
X137238845Y-97751500D01*
X137238842Y-97751500D01*
X137081158Y-97751500D01*
X137081155Y-97751500D01*
X136926510Y-97782261D01*
X136926498Y-97782264D01*
X136780827Y-97842602D01*
X136780814Y-97842609D01*
X136649711Y-97930210D01*
X136649707Y-97930213D01*
X136538213Y-98041707D01*
X136538210Y-98041711D01*
X136450609Y-98172814D01*
X136450602Y-98172827D01*
X136390264Y-98318498D01*
X136390261Y-98318508D01*
X136359361Y-98473850D01*
X136326976Y-98535761D01*
X136325425Y-98537339D01*
X133631481Y-101231282D01*
X133631479Y-101231285D01*
X133581361Y-101318094D01*
X133581359Y-101318096D01*
X133552425Y-101368209D01*
X133552424Y-101368210D01*
X133552423Y-101368215D01*
X133511499Y-101520943D01*
X133511499Y-101520945D01*
X133511499Y-101689046D01*
X133511500Y-101689059D01*
X133511500Y-107609330D01*
X133511499Y-107609348D01*
X133511499Y-107775054D01*
X133511498Y-107775054D01*
X133511499Y-107775057D01*
X133552423Y-107927785D01*
X133557291Y-107936216D01*
X133631480Y-108064716D01*
X133635490Y-108068726D01*
X133642428Y-108080483D01*
X133649213Y-108107336D01*
X133659205Y-108133178D01*
X133657654Y-108140740D01*
X133659545Y-108148223D01*
X133650734Y-108174483D01*
X133645169Y-108201623D01*
X133639776Y-108207146D01*
X133637321Y-108214464D01*
X133615709Y-108231794D01*
X133596357Y-108251615D01*
X133588396Y-108253697D01*
X133582813Y-108258175D01*
X133563538Y-108260200D01*
X133535635Y-108267500D01*
X128882500Y-108267500D01*
X128815461Y-108247815D01*
X128769706Y-108195011D01*
X128758500Y-108143500D01*
X128758500Y-106069648D01*
X129509500Y-106069648D01*
X129509500Y-106274351D01*
X129541522Y-106476534D01*
X129604781Y-106671223D01*
X129668691Y-106796653D01*
X129689098Y-106836703D01*
X129697715Y-106853613D01*
X129818028Y-107019213D01*
X129962786Y-107163971D01*
X130105052Y-107267331D01*
X130128390Y-107284287D01*
X130212319Y-107327051D01*
X130310776Y-107377218D01*
X130310778Y-107377218D01*
X130310781Y-107377220D01*
X130415137Y-107411127D01*
X130505465Y-107440477D01*
X130578382Y-107452026D01*
X130707648Y-107472500D01*
X130707649Y-107472500D01*
X130912351Y-107472500D01*
X130912352Y-107472500D01*
X131114534Y-107440477D01*
X131309219Y-107377220D01*
X131491610Y-107284287D01*
X131604726Y-107202104D01*
X131657213Y-107163971D01*
X131657215Y-107163968D01*
X131657219Y-107163966D01*
X131801966Y-107019219D01*
X131801968Y-107019215D01*
X131801971Y-107019213D01*
X131903244Y-106879820D01*
X131922287Y-106853610D01*
X132015220Y-106671219D01*
X132078477Y-106476534D01*
X132110500Y-106274352D01*
X132110500Y-106069648D01*
X132096144Y-105979007D01*
X132078477Y-105867465D01*
X132038808Y-105745377D01*
X132015220Y-105672781D01*
X132015218Y-105672778D01*
X132015218Y-105672776D01*
X131948118Y-105541087D01*
X131922287Y-105490390D01*
X131903438Y-105464446D01*
X131801971Y-105324786D01*
X131657213Y-105180028D01*
X131491613Y-105059715D01*
X131491612Y-105059714D01*
X131491610Y-105059713D01*
X131408527Y-105017380D01*
X131309223Y-104966781D01*
X131114534Y-104903522D01*
X130939995Y-104875878D01*
X130912352Y-104871500D01*
X130707648Y-104871500D01*
X130683329Y-104875351D01*
X130505465Y-104903522D01*
X130310776Y-104966781D01*
X130128386Y-105059715D01*
X129962786Y-105180028D01*
X129818028Y-105324786D01*
X129697715Y-105490386D01*
X129604781Y-105672776D01*
X129541522Y-105867465D01*
X129509500Y-106069648D01*
X128758500Y-106069648D01*
X128758500Y-85711135D01*
X130221500Y-85711135D01*
X130221500Y-87506870D01*
X130221501Y-87506876D01*
X130227908Y-87566483D01*
X130278202Y-87701328D01*
X130278206Y-87701335D01*
X130364452Y-87816544D01*
X130364455Y-87816547D01*
X130479664Y-87902793D01*
X130479671Y-87902797D01*
X130524618Y-87919561D01*
X130614517Y-87953091D01*
X130674127Y-87959500D01*
X130684685Y-87959499D01*
X130751723Y-87979179D01*
X130772372Y-87995818D01*
X131442591Y-88666037D01*
X131379007Y-88683075D01*
X131264993Y-88748901D01*
X131171901Y-88841993D01*
X131106075Y-88956007D01*
X131089037Y-89019591D01*
X130456728Y-88387282D01*
X130456727Y-88387282D01*
X130417380Y-88441439D01*
X130320904Y-88630782D01*
X130255242Y-88832869D01*
X130255242Y-88832872D01*
X130222000Y-89042753D01*
X130222000Y-89255246D01*
X130255242Y-89465127D01*
X130255242Y-89465130D01*
X130320904Y-89667217D01*
X130417375Y-89856550D01*
X130456728Y-89910716D01*
X131089037Y-89278408D01*
X131106075Y-89341993D01*
X131171901Y-89456007D01*
X131264993Y-89549099D01*
X131379007Y-89614925D01*
X131442590Y-89631962D01*
X130810282Y-90264269D01*
X130810282Y-90264270D01*
X130864449Y-90303624D01*
X131053782Y-90400095D01*
X131255870Y-90465757D01*
X131465754Y-90499000D01*
X131678246Y-90499000D01*
X131888127Y-90465757D01*
X131888130Y-90465757D01*
X132090217Y-90400095D01*
X132279554Y-90303622D01*
X132333716Y-90264270D01*
X132333717Y-90264270D01*
X131701408Y-89631962D01*
X131764993Y-89614925D01*
X131879007Y-89549099D01*
X131972099Y-89456007D01*
X132037925Y-89341993D01*
X132054962Y-89278408D01*
X132687270Y-89910717D01*
X132687270Y-89910716D01*
X132726622Y-89856554D01*
X132823095Y-89667217D01*
X132888757Y-89465130D01*
X132888757Y-89465127D01*
X132922000Y-89255246D01*
X132922000Y-89042753D01*
X132888757Y-88832872D01*
X132888757Y-88832869D01*
X132823095Y-88630782D01*
X132726624Y-88441449D01*
X132687270Y-88387282D01*
X132687269Y-88387282D01*
X132054962Y-89019590D01*
X132037925Y-88956007D01*
X131972099Y-88841993D01*
X131879007Y-88748901D01*
X131764993Y-88683075D01*
X131701409Y-88666037D01*
X132371627Y-87995818D01*
X132432950Y-87962333D01*
X132459307Y-87959499D01*
X132469872Y-87959499D01*
X132529483Y-87953091D01*
X132664331Y-87902796D01*
X132779546Y-87816546D01*
X132865796Y-87701331D01*
X132916091Y-87566483D01*
X132922500Y-87506873D01*
X132922499Y-85711128D01*
X132916091Y-85651517D01*
X132903780Y-85618510D01*
X132865797Y-85516671D01*
X132865793Y-85516664D01*
X132779547Y-85401455D01*
X132779544Y-85401452D01*
X132664335Y-85315206D01*
X132664328Y-85315202D01*
X132529482Y-85264908D01*
X132529483Y-85264908D01*
X132469883Y-85258501D01*
X132469881Y-85258500D01*
X132469873Y-85258500D01*
X132469864Y-85258500D01*
X130674129Y-85258500D01*
X130674123Y-85258501D01*
X130614516Y-85264908D01*
X130479671Y-85315202D01*
X130479664Y-85315206D01*
X130364455Y-85401452D01*
X130364452Y-85401455D01*
X130278206Y-85516664D01*
X130278202Y-85516671D01*
X130227908Y-85651517D01*
X130224937Y-85679157D01*
X130221501Y-85711123D01*
X130221500Y-85711135D01*
X128758500Y-85711135D01*
X128758500Y-77113648D01*
X129509500Y-77113648D01*
X129509500Y-77318351D01*
X129541522Y-77520534D01*
X129604781Y-77715223D01*
X129697715Y-77897613D01*
X129818028Y-78063213D01*
X129962786Y-78207971D01*
X130106368Y-78312287D01*
X130128390Y-78328287D01*
X130244607Y-78387503D01*
X130310776Y-78421218D01*
X130310778Y-78421218D01*
X130310781Y-78421220D01*
X130415137Y-78455127D01*
X130505465Y-78484477D01*
X130606557Y-78500488D01*
X130707648Y-78516500D01*
X130707649Y-78516500D01*
X130912351Y-78516500D01*
X130912352Y-78516500D01*
X131114534Y-78484477D01*
X131309219Y-78421220D01*
X131491610Y-78328287D01*
X131584590Y-78260732D01*
X131657213Y-78207971D01*
X131657215Y-78207968D01*
X131657219Y-78207966D01*
X131801966Y-78063219D01*
X131801968Y-78063215D01*
X131801971Y-78063213D01*
X131854732Y-77990590D01*
X131922287Y-77897610D01*
X132015220Y-77715219D01*
X132078477Y-77520534D01*
X132110500Y-77318352D01*
X132110500Y-77113648D01*
X132107966Y-77097648D01*
X174699500Y-77097648D01*
X174699500Y-77302351D01*
X174731522Y-77504534D01*
X174794781Y-77699223D01*
X174887715Y-77881613D01*
X175008028Y-78047213D01*
X175152786Y-78191971D01*
X175307749Y-78304556D01*
X175318390Y-78312287D01*
X175434607Y-78371503D01*
X175500776Y-78405218D01*
X175500778Y-78405218D01*
X175500781Y-78405220D01*
X175605137Y-78439127D01*
X175695465Y-78468477D01*
X175796484Y-78484477D01*
X175897648Y-78500500D01*
X175897649Y-78500500D01*
X176102351Y-78500500D01*
X176102352Y-78500500D01*
X176304534Y-78468477D01*
X176499219Y-78405220D01*
X176681610Y-78312287D01*
X176825197Y-78207966D01*
X176847213Y-78191971D01*
X176847215Y-78191968D01*
X176847219Y-78191966D01*
X176991966Y-78047219D01*
X176991968Y-78047215D01*
X176991971Y-78047213D01*
X177100662Y-77897610D01*
X177112287Y-77881610D01*
X177205220Y-77699219D01*
X177268477Y-77504534D01*
X177300500Y-77302352D01*
X177300500Y-77097648D01*
X177268477Y-76895466D01*
X177205220Y-76700781D01*
X177205218Y-76700778D01*
X177205218Y-76700776D01*
X177120437Y-76534386D01*
X177112287Y-76518390D01*
X177104556Y-76507749D01*
X176991971Y-76352786D01*
X176847213Y-76208028D01*
X176681613Y-76087715D01*
X176681612Y-76087714D01*
X176681610Y-76087713D01*
X176624653Y-76058691D01*
X176499223Y-75994781D01*
X176304534Y-75931522D01*
X176129995Y-75903878D01*
X176102352Y-75899500D01*
X175897648Y-75899500D01*
X175873329Y-75903351D01*
X175695465Y-75931522D01*
X175500776Y-75994781D01*
X175318386Y-76087715D01*
X175152786Y-76208028D01*
X175008028Y-76352786D01*
X174887715Y-76518386D01*
X174794781Y-76700776D01*
X174731522Y-76895465D01*
X174699500Y-77097648D01*
X132107966Y-77097648D01*
X132078477Y-76911466D01*
X132015220Y-76716781D01*
X132015218Y-76716778D01*
X132015218Y-76716776D01*
X131981503Y-76650607D01*
X131922287Y-76534390D01*
X131910660Y-76518386D01*
X131801971Y-76368786D01*
X131657213Y-76224028D01*
X131491613Y-76103715D01*
X131491612Y-76103714D01*
X131491610Y-76103713D01*
X131434653Y-76074691D01*
X131309223Y-76010781D01*
X131114534Y-75947522D01*
X130939995Y-75919878D01*
X130912352Y-75915500D01*
X130707648Y-75915500D01*
X130683329Y-75919351D01*
X130505465Y-75947522D01*
X130310776Y-76010781D01*
X130128386Y-76103715D01*
X129962786Y-76224028D01*
X129818028Y-76368786D01*
X129697715Y-76534386D01*
X129604781Y-76716776D01*
X129541522Y-76911465D01*
X129509500Y-77113648D01*
X128758500Y-77113648D01*
X128758500Y-75356500D01*
X128778185Y-75289461D01*
X128830989Y-75243706D01*
X128882500Y-75232500D01*
X177925500Y-75232500D01*
X177992539Y-75252185D01*
G37*
%TD.AperFunction*%
%TA.AperFunction,Conductor*%
G36*
X152950075Y-106364993D02*
G01*
X153015901Y-106479007D01*
X153108993Y-106572099D01*
X153223007Y-106637925D01*
X153286590Y-106654962D01*
X152654282Y-107287269D01*
X152654282Y-107287270D01*
X152708452Y-107326626D01*
X152720992Y-107333016D01*
X152771787Y-107380990D01*
X152788582Y-107448811D01*
X152766044Y-107514946D01*
X152711329Y-107558397D01*
X152664696Y-107567500D01*
X151628406Y-107567500D01*
X151561367Y-107547815D01*
X151515612Y-107495011D01*
X151505668Y-107425853D01*
X151534693Y-107362297D01*
X151572110Y-107333016D01*
X151578048Y-107329989D01*
X151583816Y-107327051D01*
X151642680Y-107284284D01*
X151755786Y-107202109D01*
X151755788Y-107202106D01*
X151755792Y-107202104D01*
X151906104Y-107051792D01*
X151906106Y-107051788D01*
X151906109Y-107051786D01*
X151991890Y-106933717D01*
X152031051Y-106879816D01*
X152035793Y-106870508D01*
X152083763Y-106819711D01*
X152151583Y-106802911D01*
X152217719Y-106825445D01*
X152256763Y-106870500D01*
X152261373Y-106879547D01*
X152300728Y-106933716D01*
X152933037Y-106301408D01*
X152950075Y-106364993D01*
G37*
%TD.AperFunction*%
%TA.AperFunction,Conductor*%
G36*
X154531270Y-106933717D02*
G01*
X154531270Y-106933716D01*
X154570622Y-106879555D01*
X154575232Y-106870507D01*
X154623205Y-106819709D01*
X154691025Y-106802912D01*
X154757161Y-106825447D01*
X154796204Y-106870504D01*
X154800949Y-106879817D01*
X154925890Y-107051786D01*
X155076213Y-107202109D01*
X155248182Y-107327050D01*
X155259890Y-107333016D01*
X155310685Y-107380990D01*
X155327480Y-107448811D01*
X155304942Y-107514946D01*
X155250227Y-107558397D01*
X155203594Y-107567500D01*
X154167304Y-107567500D01*
X154100265Y-107547815D01*
X154054510Y-107495011D01*
X154044566Y-107425853D01*
X154073591Y-107362297D01*
X154111008Y-107333016D01*
X154123551Y-107326624D01*
X154177716Y-107287270D01*
X154177717Y-107287270D01*
X153545408Y-106654962D01*
X153608993Y-106637925D01*
X153723007Y-106572099D01*
X153816099Y-106479007D01*
X153881925Y-106364993D01*
X153898962Y-106301409D01*
X154531270Y-106933717D01*
G37*
%TD.AperFunction*%
%TA.AperFunction,Conductor*%
G36*
X156629191Y-95108185D02*
G01*
X156674946Y-95160989D01*
X156683769Y-95188308D01*
X156710261Y-95321491D01*
X156710264Y-95321501D01*
X156770602Y-95467172D01*
X156770609Y-95467185D01*
X156858210Y-95598288D01*
X156858213Y-95598292D01*
X156969707Y-95709786D01*
X156969711Y-95709789D01*
X157100814Y-95797390D01*
X157100827Y-95797397D01*
X157246498Y-95857735D01*
X157246503Y-95857737D01*
X157374373Y-95883172D01*
X157401153Y-95888499D01*
X157401156Y-95888500D01*
X157401158Y-95888500D01*
X157471903Y-95888500D01*
X157538942Y-95908185D01*
X157559584Y-95924819D01*
X163835181Y-102200416D01*
X163868666Y-102261739D01*
X163871500Y-102288097D01*
X163871500Y-104759872D01*
X163851815Y-104826911D01*
X163799011Y-104872666D01*
X163729853Y-104882610D01*
X163709183Y-104877803D01*
X163638244Y-104854754D01*
X163638240Y-104854753D01*
X163476957Y-104829208D01*
X163428287Y-104821500D01*
X163215713Y-104821500D01*
X163167042Y-104829208D01*
X163005760Y-104854753D01*
X162803585Y-104920444D01*
X162614179Y-105016951D01*
X162442215Y-105141889D01*
X162328285Y-105255819D01*
X162266962Y-105289303D01*
X162197270Y-105284319D01*
X162141337Y-105242447D01*
X162124422Y-105211470D01*
X162075354Y-105079913D01*
X162075350Y-105079906D01*
X161989190Y-104964812D01*
X161989187Y-104964809D01*
X161874093Y-104878649D01*
X161874086Y-104878645D01*
X161739379Y-104828403D01*
X161739372Y-104828401D01*
X161679844Y-104822000D01*
X161032000Y-104822000D01*
X161032000Y-105738988D01*
X160974993Y-105706075D01*
X160847826Y-105672000D01*
X160716174Y-105672000D01*
X160589007Y-105706075D01*
X160532000Y-105738988D01*
X160532000Y-104822000D01*
X159884155Y-104822000D01*
X159824627Y-104828401D01*
X159824620Y-104828403D01*
X159689913Y-104878645D01*
X159689906Y-104878649D01*
X159574812Y-104964809D01*
X159574809Y-104964812D01*
X159488649Y-105079906D01*
X159488645Y-105079913D01*
X159438403Y-105214620D01*
X159438401Y-105214627D01*
X159432000Y-105274155D01*
X159432000Y-105922000D01*
X160348988Y-105922000D01*
X160316075Y-105979007D01*
X160282000Y-106106174D01*
X160282000Y-106237826D01*
X160316075Y-106364993D01*
X160348988Y-106422000D01*
X159432000Y-106422000D01*
X159432000Y-107069844D01*
X159438401Y-107129372D01*
X159438403Y-107129379D01*
X159488645Y-107264086D01*
X159488647Y-107264089D01*
X159567325Y-107369188D01*
X159591743Y-107434652D01*
X159576892Y-107502926D01*
X159527487Y-107552331D01*
X159468059Y-107567500D01*
X156708406Y-107567500D01*
X156641367Y-107547815D01*
X156595612Y-107495011D01*
X156585668Y-107425853D01*
X156614693Y-107362297D01*
X156652110Y-107333016D01*
X156658048Y-107329989D01*
X156663816Y-107327051D01*
X156722680Y-107284284D01*
X156835786Y-107202109D01*
X156835788Y-107202106D01*
X156835792Y-107202104D01*
X156986104Y-107051792D01*
X156986106Y-107051788D01*
X156986109Y-107051786D01*
X157111048Y-106879820D01*
X157111047Y-106879820D01*
X157111051Y-106879816D01*
X157207557Y-106690412D01*
X157273246Y-106488243D01*
X157306500Y-106278287D01*
X157306500Y-106065713D01*
X157273246Y-105855757D01*
X157207557Y-105653588D01*
X157111051Y-105464184D01*
X157111049Y-105464181D01*
X157111048Y-105464179D01*
X157023542Y-105343736D01*
X156986109Y-105292214D01*
X156986105Y-105292209D01*
X156835786Y-105141890D01*
X156663815Y-105016948D01*
X156663814Y-105016947D01*
X156624205Y-104996765D01*
X156573409Y-104948791D01*
X156556500Y-104886281D01*
X156556500Y-104610060D01*
X156556501Y-104610047D01*
X156556501Y-104441944D01*
X156515576Y-104289214D01*
X156515573Y-104289209D01*
X156436524Y-104152290D01*
X156436518Y-104152282D01*
X154896417Y-102612181D01*
X154862932Y-102550858D01*
X154867916Y-102481166D01*
X154909788Y-102425233D01*
X154975252Y-102400816D01*
X154984098Y-102400500D01*
X155018844Y-102400500D01*
X155018845Y-102400499D01*
X155173497Y-102369737D01*
X155319179Y-102309394D01*
X155450289Y-102221789D01*
X155561789Y-102110289D01*
X155649394Y-101979179D01*
X155709737Y-101833497D01*
X155740500Y-101678842D01*
X155740500Y-101521158D01*
X155740500Y-101521155D01*
X155740499Y-101521153D01*
X155740457Y-101520943D01*
X155709737Y-101366503D01*
X155709735Y-101366498D01*
X155649397Y-101220827D01*
X155649390Y-101220814D01*
X155561789Y-101089711D01*
X155561786Y-101089707D01*
X155450292Y-100978213D01*
X155450288Y-100978210D01*
X155319185Y-100890609D01*
X155319172Y-100890602D01*
X155173501Y-100830264D01*
X155173491Y-100830261D01*
X155018149Y-100799361D01*
X154956238Y-100766976D01*
X154954660Y-100765425D01*
X150705416Y-96516181D01*
X150671931Y-96454858D01*
X150676915Y-96385166D01*
X150718787Y-96329233D01*
X150784251Y-96304816D01*
X150793097Y-96304500D01*
X150954844Y-96304500D01*
X150954845Y-96304499D01*
X151109497Y-96273737D01*
X151255179Y-96213394D01*
X151386289Y-96125789D01*
X151497789Y-96014289D01*
X151585394Y-95883179D01*
X151645737Y-95737497D01*
X151673427Y-95598292D01*
X151676638Y-95582150D01*
X151709023Y-95520239D01*
X151710518Y-95518716D01*
X152104416Y-95124819D01*
X152165739Y-95091334D01*
X152192097Y-95088500D01*
X156562152Y-95088500D01*
X156629191Y-95108185D01*
G37*
%TD.AperFunction*%
%TA.AperFunction,Conductor*%
G36*
X157137191Y-83424185D02*
G01*
X157182946Y-83476989D01*
X157191769Y-83504308D01*
X157218261Y-83637491D01*
X157218264Y-83637501D01*
X157278602Y-83783172D01*
X157278609Y-83783185D01*
X157366210Y-83914288D01*
X157366213Y-83914292D01*
X157477707Y-84025786D01*
X157477711Y-84025789D01*
X157608814Y-84113390D01*
X157608827Y-84113397D01*
X157644527Y-84128184D01*
X157754503Y-84173737D01*
X157819147Y-84186595D01*
X157909849Y-84204638D01*
X157971760Y-84237023D01*
X157973339Y-84238574D01*
X158875181Y-85140416D01*
X158889884Y-85167343D01*
X158906477Y-85193162D01*
X158907368Y-85199362D01*
X158908666Y-85201739D01*
X158911500Y-85228097D01*
X158911500Y-85272234D01*
X158891815Y-85339273D01*
X158890602Y-85341125D01*
X158802609Y-85472814D01*
X158802602Y-85472827D01*
X158742264Y-85618498D01*
X158742261Y-85618510D01*
X158711500Y-85773153D01*
X158711500Y-85930846D01*
X158742261Y-86085489D01*
X158742264Y-86085501D01*
X158802602Y-86231172D01*
X158802609Y-86231185D01*
X158890210Y-86362288D01*
X158890213Y-86362292D01*
X159001707Y-86473786D01*
X159001711Y-86473789D01*
X159132814Y-86561390D01*
X159132827Y-86561397D01*
X159260505Y-86614282D01*
X159278503Y-86621737D01*
X159433153Y-86652499D01*
X159433156Y-86652500D01*
X159433158Y-86652500D01*
X159590844Y-86652500D01*
X159590845Y-86652499D01*
X159745497Y-86621737D01*
X159891179Y-86561394D01*
X160022289Y-86473789D01*
X160133789Y-86362289D01*
X160221394Y-86231179D01*
X160281737Y-86085497D01*
X160312500Y-85930842D01*
X160312500Y-85773158D01*
X160312500Y-85773155D01*
X160312499Y-85773153D01*
X160300163Y-85711135D01*
X160281737Y-85618503D01*
X160250801Y-85543816D01*
X160221397Y-85472827D01*
X160221390Y-85472814D01*
X160133398Y-85341125D01*
X160112520Y-85274447D01*
X160112500Y-85272234D01*
X160112500Y-84848945D01*
X160112500Y-84848943D01*
X160071577Y-84696216D01*
X160067123Y-84688501D01*
X159992524Y-84559290D01*
X159992521Y-84559286D01*
X159992520Y-84559284D01*
X159880716Y-84447480D01*
X159880715Y-84447479D01*
X159876385Y-84443149D01*
X159876374Y-84443139D01*
X159049416Y-83616181D01*
X159015931Y-83554858D01*
X159020915Y-83485166D01*
X159062787Y-83429233D01*
X159128251Y-83404816D01*
X159137097Y-83404500D01*
X168096903Y-83404500D01*
X168163942Y-83424185D01*
X168184584Y-83440819D01*
X171635241Y-86891476D01*
X171668726Y-86952799D01*
X171665492Y-87017473D01*
X171651753Y-87059757D01*
X171618500Y-87269713D01*
X171618500Y-87482286D01*
X171651735Y-87692127D01*
X171651754Y-87692243D01*
X171714993Y-87886873D01*
X171717444Y-87894414D01*
X171813951Y-88083820D01*
X171938890Y-88255786D01*
X172089213Y-88406109D01*
X172261179Y-88531048D01*
X172261181Y-88531049D01*
X172261184Y-88531051D01*
X172450588Y-88627557D01*
X172652757Y-88693246D01*
X172862713Y-88726500D01*
X172862714Y-88726500D01*
X173075286Y-88726500D01*
X173075287Y-88726500D01*
X173285243Y-88693246D01*
X173487412Y-88627557D01*
X173676816Y-88531051D01*
X173689762Y-88521644D01*
X173721874Y-88510186D01*
X173753801Y-88498279D01*
X173754700Y-88498474D01*
X173755568Y-88498165D01*
X173788765Y-88505884D01*
X173822074Y-88513130D01*
X173823042Y-88513855D01*
X173823622Y-88513990D01*
X173850324Y-88534277D01*
X173940284Y-88624237D01*
X173940286Y-88624238D01*
X173947356Y-88631308D01*
X174355799Y-89039751D01*
X174389284Y-89101074D01*
X174384300Y-89170766D01*
X174342428Y-89226699D01*
X174337009Y-89230534D01*
X174241711Y-89294210D01*
X174241707Y-89294213D01*
X174130213Y-89405707D01*
X174130210Y-89405711D01*
X174042609Y-89536814D01*
X174042602Y-89536827D01*
X173982264Y-89682498D01*
X173982261Y-89682510D01*
X173951500Y-89837153D01*
X173951500Y-89994846D01*
X173982261Y-90149489D01*
X173982264Y-90149501D01*
X174042602Y-90295172D01*
X174042609Y-90295185D01*
X174130210Y-90426288D01*
X174130213Y-90426292D01*
X174241707Y-90537786D01*
X174241711Y-90537789D01*
X174377886Y-90628779D01*
X174376587Y-90630722D01*
X174419032Y-90672406D01*
X174434500Y-90740542D01*
X174410676Y-90806224D01*
X174355123Y-90848599D01*
X174324001Y-90856103D01*
X174302625Y-90858401D01*
X174302620Y-90858403D01*
X174167913Y-90908645D01*
X174167906Y-90908649D01*
X174052812Y-90994809D01*
X174052809Y-90994812D01*
X173966649Y-91109906D01*
X173966645Y-91109913D01*
X173916403Y-91244620D01*
X173916401Y-91244627D01*
X173910000Y-91304155D01*
X173910000Y-91952000D01*
X174826988Y-91952000D01*
X174794075Y-92009007D01*
X174760000Y-92136174D01*
X174760000Y-92267826D01*
X174794075Y-92394993D01*
X174826988Y-92452000D01*
X173870597Y-92452000D01*
X173803558Y-92432315D01*
X173782916Y-92415681D01*
X169905590Y-88538355D01*
X169905588Y-88538352D01*
X169786717Y-88419481D01*
X169786709Y-88419475D01*
X169691523Y-88364520D01*
X169691521Y-88364519D01*
X169649790Y-88340425D01*
X169649789Y-88340424D01*
X169637263Y-88337067D01*
X169497057Y-88299499D01*
X169338943Y-88299499D01*
X169331347Y-88299499D01*
X169331331Y-88299500D01*
X165576266Y-88299500D01*
X165509227Y-88279815D01*
X165507375Y-88278602D01*
X165375685Y-88190609D01*
X165375672Y-88190602D01*
X165230001Y-88130264D01*
X165229989Y-88130261D01*
X165075345Y-88099500D01*
X165075342Y-88099500D01*
X164917658Y-88099500D01*
X164917655Y-88099500D01*
X164763010Y-88130261D01*
X164762998Y-88130264D01*
X164617327Y-88190602D01*
X164617314Y-88190609D01*
X164486214Y-88278208D01*
X164481507Y-88282072D01*
X164480699Y-88281088D01*
X164425171Y-88311400D01*
X164355480Y-88306407D01*
X164311147Y-88277912D01*
X163839207Y-87805972D01*
X163805722Y-87744649D01*
X163810706Y-87674957D01*
X163812302Y-87670900D01*
X163837737Y-87609497D01*
X163868500Y-87454842D01*
X163868500Y-87297158D01*
X163868500Y-87297155D01*
X163868499Y-87297153D01*
X163837738Y-87142510D01*
X163837737Y-87142503D01*
X163824912Y-87111541D01*
X163777397Y-86996827D01*
X163777390Y-86996814D01*
X163689789Y-86865711D01*
X163689786Y-86865707D01*
X163578292Y-86754213D01*
X163578288Y-86754210D01*
X163447185Y-86666609D01*
X163447172Y-86666602D01*
X163301501Y-86606264D01*
X163301489Y-86606261D01*
X163146845Y-86575500D01*
X163146842Y-86575500D01*
X162989158Y-86575500D01*
X162989155Y-86575500D01*
X162834510Y-86606261D01*
X162834498Y-86606264D01*
X162688827Y-86666602D01*
X162688814Y-86666609D01*
X162557711Y-86754210D01*
X162557707Y-86754213D01*
X162446213Y-86865707D01*
X162446210Y-86865711D01*
X162358609Y-86996814D01*
X162358602Y-86996827D01*
X162298264Y-87142498D01*
X162298261Y-87142510D01*
X162267500Y-87297153D01*
X162267500Y-87454846D01*
X162298261Y-87609489D01*
X162298264Y-87609501D01*
X162358602Y-87755172D01*
X162358609Y-87755185D01*
X162446601Y-87886873D01*
X162462949Y-87922482D01*
X162467499Y-87938811D01*
X162467499Y-87963057D01*
X162508423Y-88115785D01*
X162516782Y-88130263D01*
X162524630Y-88143857D01*
X162524631Y-88143858D01*
X162587477Y-88252712D01*
X162587481Y-88252717D01*
X162706349Y-88371585D01*
X162706355Y-88371590D01*
X168171139Y-93836374D01*
X168171149Y-93836385D01*
X168175479Y-93840715D01*
X168175480Y-93840716D01*
X168287284Y-93952520D01*
X168287286Y-93952521D01*
X168287290Y-93952524D01*
X168382473Y-94007477D01*
X168424216Y-94031577D01*
X168536019Y-94061534D01*
X168576942Y-94072500D01*
X168576943Y-94072500D01*
X169092234Y-94072500D01*
X169159273Y-94092185D01*
X169161125Y-94093398D01*
X169292814Y-94181390D01*
X169292827Y-94181397D01*
X169438498Y-94241735D01*
X169438503Y-94241737D01*
X169593153Y-94272499D01*
X169593156Y-94272500D01*
X169593158Y-94272500D01*
X169750844Y-94272500D01*
X169750845Y-94272499D01*
X169905497Y-94241737D01*
X170051179Y-94181394D01*
X170182289Y-94093789D01*
X170293789Y-93982289D01*
X170381394Y-93851179D01*
X170441737Y-93705497D01*
X170472500Y-93550842D01*
X170472500Y-93393158D01*
X170472500Y-93393155D01*
X170472499Y-93393153D01*
X170446601Y-93262957D01*
X170441737Y-93238503D01*
X170424749Y-93197489D01*
X170381397Y-93092827D01*
X170381390Y-93092814D01*
X170293789Y-92961711D01*
X170293786Y-92961707D01*
X170182292Y-92850213D01*
X170182288Y-92850210D01*
X170051185Y-92762609D01*
X170051172Y-92762602D01*
X169905501Y-92702264D01*
X169905489Y-92702261D01*
X169750845Y-92671500D01*
X169750842Y-92671500D01*
X169593158Y-92671500D01*
X169593155Y-92671500D01*
X169438510Y-92702261D01*
X169438498Y-92702264D01*
X169292827Y-92762602D01*
X169292814Y-92762609D01*
X169161125Y-92850602D01*
X169143078Y-92856252D01*
X169127169Y-92866477D01*
X169096207Y-92870928D01*
X169094447Y-92871480D01*
X169092234Y-92871500D01*
X168956097Y-92871500D01*
X168889058Y-92851815D01*
X168868416Y-92835181D01*
X167316061Y-91282826D01*
X168744500Y-91282826D01*
X168744500Y-91440519D01*
X168775261Y-91595162D01*
X168775264Y-91595174D01*
X168835602Y-91740845D01*
X168835609Y-91740858D01*
X168923210Y-91871961D01*
X168923213Y-91871965D01*
X169034707Y-91983459D01*
X169034711Y-91983462D01*
X169165814Y-92071063D01*
X169165827Y-92071070D01*
X169311498Y-92131408D01*
X169311503Y-92131410D01*
X169466153Y-92162172D01*
X169466156Y-92162173D01*
X169466158Y-92162173D01*
X169623844Y-92162173D01*
X169623845Y-92162172D01*
X169778497Y-92131410D01*
X169924179Y-92071067D01*
X170055289Y-91983462D01*
X170166789Y-91871962D01*
X170254394Y-91740852D01*
X170314737Y-91595170D01*
X170345500Y-91440515D01*
X170345500Y-91282831D01*
X170345500Y-91282828D01*
X170345499Y-91282826D01*
X170336702Y-91238602D01*
X170314737Y-91128176D01*
X170307172Y-91109913D01*
X170254397Y-90982500D01*
X170254390Y-90982487D01*
X170166789Y-90851384D01*
X170166786Y-90851380D01*
X170055292Y-90739886D01*
X170055288Y-90739883D01*
X169924185Y-90652282D01*
X169924172Y-90652275D01*
X169778501Y-90591937D01*
X169778489Y-90591934D01*
X169623845Y-90561173D01*
X169623842Y-90561173D01*
X169466158Y-90561173D01*
X169466155Y-90561173D01*
X169311510Y-90591934D01*
X169311498Y-90591937D01*
X169165827Y-90652275D01*
X169165814Y-90652282D01*
X169034711Y-90739883D01*
X169034707Y-90739886D01*
X168923213Y-90851380D01*
X168923210Y-90851384D01*
X168835609Y-90982487D01*
X168835602Y-90982500D01*
X168775264Y-91128171D01*
X168775261Y-91128183D01*
X168744500Y-91282826D01*
X167316061Y-91282826D01*
X165745416Y-89712181D01*
X165711931Y-89650858D01*
X165716915Y-89581166D01*
X165758787Y-89525233D01*
X165824251Y-89500816D01*
X165833097Y-89500500D01*
X169117903Y-89500500D01*
X169184942Y-89520185D01*
X169205584Y-89536819D01*
X173926241Y-94257476D01*
X173959726Y-94318799D01*
X173956492Y-94383473D01*
X173942753Y-94425757D01*
X173920370Y-94567083D01*
X173909500Y-94635713D01*
X173909500Y-94848287D01*
X173910697Y-94855846D01*
X173937465Y-95024853D01*
X173942754Y-95058243D01*
X174007574Y-95257738D01*
X174008444Y-95260414D01*
X174104951Y-95449820D01*
X174229890Y-95621786D01*
X174380213Y-95772109D01*
X174552182Y-95897050D01*
X174560946Y-95901516D01*
X174611742Y-95949491D01*
X174628536Y-96017312D01*
X174605998Y-96083447D01*
X174560946Y-96122484D01*
X174552182Y-96126949D01*
X174380213Y-96251890D01*
X174229890Y-96402213D01*
X174104951Y-96574179D01*
X174008444Y-96763585D01*
X173942753Y-96965760D01*
X173909500Y-97175713D01*
X173909500Y-97388286D01*
X173940196Y-97582097D01*
X173942754Y-97598243D01*
X174002546Y-97782264D01*
X174008444Y-97800414D01*
X174104951Y-97989820D01*
X174229890Y-98161786D01*
X174380213Y-98312109D01*
X174552182Y-98437050D01*
X174560946Y-98441516D01*
X174611742Y-98489491D01*
X174628536Y-98557312D01*
X174605998Y-98623447D01*
X174560946Y-98662484D01*
X174552182Y-98666949D01*
X174380213Y-98791890D01*
X174229890Y-98942213D01*
X174104951Y-99114179D01*
X174008444Y-99303585D01*
X173942753Y-99505760D01*
X173909500Y-99715713D01*
X173909500Y-99928286D01*
X173942753Y-100138239D01*
X174008444Y-100340414D01*
X174104951Y-100529820D01*
X174229890Y-100701786D01*
X174380213Y-100852109D01*
X174552179Y-100977048D01*
X174552181Y-100977049D01*
X174552184Y-100977051D01*
X174741588Y-101073557D01*
X174943757Y-101139246D01*
X175153713Y-101172500D01*
X175153714Y-101172500D01*
X175366286Y-101172500D01*
X175366287Y-101172500D01*
X175576243Y-101139246D01*
X175778412Y-101073557D01*
X175967816Y-100977051D01*
X175989789Y-100961086D01*
X176139786Y-100852109D01*
X176139788Y-100852106D01*
X176139792Y-100852104D01*
X176290104Y-100701792D01*
X176290106Y-100701788D01*
X176290109Y-100701786D01*
X176415048Y-100529820D01*
X176415047Y-100529820D01*
X176415051Y-100529816D01*
X176511557Y-100340412D01*
X176577246Y-100138243D01*
X176610500Y-99928287D01*
X176610500Y-99715713D01*
X176577246Y-99505757D01*
X176563506Y-99463473D01*
X176561512Y-99393635D01*
X176593755Y-99337478D01*
X176818506Y-99112728D01*
X176818511Y-99112724D01*
X176828714Y-99102520D01*
X176828716Y-99102520D01*
X176940520Y-98990716D01*
X176968113Y-98942922D01*
X177018679Y-98894708D01*
X177087286Y-98881484D01*
X177152151Y-98907452D01*
X177192680Y-98964365D01*
X177199500Y-99004923D01*
X177199500Y-105337953D01*
X177179815Y-105404992D01*
X177127011Y-105450747D01*
X177057853Y-105460691D01*
X176994297Y-105431666D01*
X176987819Y-105425634D01*
X176869213Y-105307028D01*
X176703613Y-105186715D01*
X176703612Y-105186714D01*
X176703610Y-105186713D01*
X176615652Y-105141896D01*
X176521223Y-105093781D01*
X176326534Y-105030522D01*
X176151995Y-105002878D01*
X176124352Y-104998500D01*
X175919648Y-104998500D01*
X175895329Y-105002351D01*
X175717465Y-105030522D01*
X175522776Y-105093781D01*
X175340386Y-105186715D01*
X175174786Y-105307028D01*
X175030028Y-105451786D01*
X174909715Y-105617386D01*
X174816781Y-105799776D01*
X174753522Y-105994465D01*
X174727179Y-106160794D01*
X174721500Y-106196648D01*
X174721500Y-106401352D01*
X174724770Y-106422000D01*
X174753522Y-106603534D01*
X174816781Y-106798223D01*
X174909715Y-106980613D01*
X175030028Y-107146213D01*
X175174781Y-107290966D01*
X175177415Y-107293216D01*
X175178136Y-107294321D01*
X175178226Y-107294411D01*
X175178207Y-107294429D01*
X175215603Y-107351725D01*
X175216097Y-107421593D01*
X175178739Y-107480637D01*
X175115390Y-107510110D01*
X175096876Y-107511500D01*
X169237577Y-107511500D01*
X169170538Y-107491815D01*
X169124783Y-107439011D01*
X169114839Y-107369853D01*
X169143864Y-107306297D01*
X169164689Y-107287183D01*
X169281792Y-107202104D01*
X169432104Y-107051792D01*
X169432106Y-107051788D01*
X169432109Y-107051786D01*
X169557048Y-106879820D01*
X169557047Y-106879820D01*
X169557051Y-106879816D01*
X169653557Y-106690412D01*
X169719246Y-106488243D01*
X169752500Y-106278287D01*
X169752500Y-106065713D01*
X169719246Y-105855757D01*
X169653557Y-105653588D01*
X169557051Y-105464184D01*
X169557049Y-105464181D01*
X169557048Y-105464179D01*
X169432109Y-105292213D01*
X169281786Y-105141890D01*
X169109815Y-105016948D01*
X169109814Y-105016947D01*
X169070205Y-104996765D01*
X169019409Y-104948791D01*
X169002500Y-104886281D01*
X169002500Y-99403059D01*
X169002501Y-99403046D01*
X169002501Y-99234945D01*
X169002501Y-99234943D01*
X168961577Y-99082215D01*
X168932639Y-99032095D01*
X168882520Y-98945284D01*
X168770716Y-98833480D01*
X168770715Y-98833479D01*
X168766385Y-98829149D01*
X168766374Y-98829139D01*
X166832864Y-96895629D01*
X166813159Y-96869949D01*
X166742520Y-96747598D01*
X162644793Y-92649871D01*
X162611308Y-92588548D01*
X162612699Y-92530097D01*
X162618350Y-92509007D01*
X162636500Y-92441271D01*
X162636500Y-92283157D01*
X162636500Y-91622844D01*
X162636501Y-91622831D01*
X162636501Y-91454728D01*
X162631940Y-91437707D01*
X162595577Y-91302000D01*
X162550832Y-91224500D01*
X162524138Y-91178264D01*
X162516521Y-91165070D01*
X162400385Y-91048934D01*
X162400374Y-91048924D01*
X161818931Y-90467481D01*
X161818923Y-90467475D01*
X161682004Y-90388426D01*
X161681999Y-90388423D01*
X161643816Y-90378192D01*
X161529271Y-90347499D01*
X161529268Y-90347499D01*
X161371156Y-90347500D01*
X160542726Y-90347500D01*
X160453900Y-90371300D01*
X160384050Y-90369637D01*
X160334127Y-90339206D01*
X156040793Y-86045872D01*
X156007308Y-85984549D01*
X156008699Y-85926098D01*
X156032500Y-85837271D01*
X156032500Y-85679157D01*
X156032500Y-85018844D01*
X156032501Y-85018831D01*
X156032501Y-84850728D01*
X156032501Y-84850727D01*
X155991577Y-84698000D01*
X155954976Y-84634606D01*
X155954976Y-84634605D01*
X155912522Y-84561072D01*
X155912521Y-84561071D01*
X155912520Y-84561069D01*
X155800716Y-84449265D01*
X155800715Y-84449264D01*
X155796385Y-84444934D01*
X155796374Y-84444924D01*
X155214931Y-83863481D01*
X155214923Y-83863475D01*
X155078000Y-83784423D01*
X155077998Y-83784422D01*
X155077162Y-83784198D01*
X155077146Y-83784194D01*
X155073355Y-83783179D01*
X154925271Y-83743499D01*
X154874513Y-83743499D01*
X154862424Y-83741071D01*
X154841969Y-83730323D01*
X154819801Y-83723814D01*
X154801473Y-83709045D01*
X154800573Y-83708572D01*
X154800309Y-83708106D01*
X154799159Y-83707180D01*
X154708160Y-83616181D01*
X154674675Y-83554858D01*
X154679659Y-83485166D01*
X154721531Y-83429233D01*
X154786995Y-83404816D01*
X154795841Y-83404500D01*
X157070152Y-83404500D01*
X157137191Y-83424185D01*
G37*
%TD.AperFunction*%
%TA.AperFunction,Conductor*%
G36*
X142694377Y-99157827D02*
G01*
X142713287Y-99158165D01*
X142741504Y-99171665D01*
X142743273Y-99172185D01*
X142745125Y-99173398D01*
X142876814Y-99261390D01*
X142876827Y-99261397D01*
X142978687Y-99303588D01*
X143022503Y-99321737D01*
X143177153Y-99352499D01*
X143177156Y-99352500D01*
X143177158Y-99352500D01*
X143334844Y-99352500D01*
X143334845Y-99352499D01*
X143489497Y-99321737D01*
X143635179Y-99261394D01*
X143674766Y-99234943D01*
X143766875Y-99173398D01*
X143833553Y-99152520D01*
X143835766Y-99152500D01*
X149686903Y-99152500D01*
X149753942Y-99172185D01*
X149774584Y-99188819D01*
X155319181Y-104733416D01*
X155333884Y-104760343D01*
X155350477Y-104786162D01*
X155351368Y-104792362D01*
X155352666Y-104794739D01*
X155355500Y-104821097D01*
X155355500Y-104886281D01*
X155335815Y-104953320D01*
X155287795Y-104996765D01*
X155248185Y-105016947D01*
X155248184Y-105016948D01*
X155076213Y-105141890D01*
X154925890Y-105292213D01*
X154800949Y-105464182D01*
X154796202Y-105473499D01*
X154748227Y-105524293D01*
X154680405Y-105541087D01*
X154614271Y-105518548D01*
X154575234Y-105473495D01*
X154570626Y-105464452D01*
X154531270Y-105410282D01*
X154531269Y-105410282D01*
X153898962Y-106042590D01*
X153881925Y-105979007D01*
X153816099Y-105864993D01*
X153723007Y-105771901D01*
X153608993Y-105706075D01*
X153545409Y-105689037D01*
X154177716Y-105056728D01*
X154123550Y-105017375D01*
X153934217Y-104920904D01*
X153732129Y-104855242D01*
X153522246Y-104822000D01*
X153309754Y-104822000D01*
X153099872Y-104855242D01*
X153099869Y-104855242D01*
X152897782Y-104920904D01*
X152708439Y-105017380D01*
X152654282Y-105056727D01*
X152654282Y-105056728D01*
X153286591Y-105689037D01*
X153223007Y-105706075D01*
X153108993Y-105771901D01*
X153015901Y-105864993D01*
X152950075Y-105979007D01*
X152933037Y-106042591D01*
X152300728Y-105410282D01*
X152300727Y-105410282D01*
X152261380Y-105464440D01*
X152261376Y-105464446D01*
X152256760Y-105473505D01*
X152208781Y-105524297D01*
X152140959Y-105541087D01*
X152074826Y-105518543D01*
X152035794Y-105473493D01*
X152031051Y-105464184D01*
X152031049Y-105464181D01*
X152031048Y-105464179D01*
X151906109Y-105292213D01*
X151755786Y-105141890D01*
X151583820Y-105016951D01*
X151394414Y-104920444D01*
X151394413Y-104920443D01*
X151394412Y-104920443D01*
X151192243Y-104854754D01*
X151192241Y-104854753D01*
X151192240Y-104854753D01*
X151030957Y-104829208D01*
X150982287Y-104821500D01*
X150769713Y-104821500D01*
X150721042Y-104829208D01*
X150559760Y-104854753D01*
X150357585Y-104920444D01*
X150168179Y-105016951D01*
X149996213Y-105141890D01*
X149845890Y-105292213D01*
X149720949Y-105464182D01*
X149716484Y-105472946D01*
X149668509Y-105523742D01*
X149600688Y-105540536D01*
X149534553Y-105517998D01*
X149495516Y-105472946D01*
X149491050Y-105464182D01*
X149366109Y-105292213D01*
X149215786Y-105141890D01*
X149043820Y-105016951D01*
X148854414Y-104920444D01*
X148854413Y-104920443D01*
X148854412Y-104920443D01*
X148652243Y-104854754D01*
X148652241Y-104854753D01*
X148652240Y-104854753D01*
X148490957Y-104829208D01*
X148442287Y-104821500D01*
X148229713Y-104821500D01*
X148181042Y-104829208D01*
X148019760Y-104854753D01*
X147817585Y-104920444D01*
X147628179Y-105016951D01*
X147456213Y-105141890D01*
X147305890Y-105292213D01*
X147180949Y-105464182D01*
X147176484Y-105472946D01*
X147128509Y-105523742D01*
X147060688Y-105540536D01*
X146994553Y-105517998D01*
X146955516Y-105472946D01*
X146951050Y-105464182D01*
X146826109Y-105292213D01*
X146675786Y-105141890D01*
X146503820Y-105016951D01*
X146314414Y-104920444D01*
X146314413Y-104920443D01*
X146314412Y-104920443D01*
X146112243Y-104854754D01*
X146112241Y-104854753D01*
X146112240Y-104854753D01*
X145950957Y-104829208D01*
X145902287Y-104821500D01*
X145689713Y-104821500D01*
X145641042Y-104829208D01*
X145479760Y-104854753D01*
X145277585Y-104920444D01*
X145088179Y-105016951D01*
X144916213Y-105141890D01*
X144765890Y-105292213D01*
X144640949Y-105464182D01*
X144636484Y-105472946D01*
X144588509Y-105523742D01*
X144520688Y-105540536D01*
X144454553Y-105517998D01*
X144415516Y-105472946D01*
X144411050Y-105464182D01*
X144286109Y-105292213D01*
X144135786Y-105141890D01*
X143963820Y-105016951D01*
X143774414Y-104920444D01*
X143774413Y-104920443D01*
X143774412Y-104920443D01*
X143572243Y-104854754D01*
X143572241Y-104854753D01*
X143572240Y-104854753D01*
X143410957Y-104829208D01*
X143362287Y-104821500D01*
X143149713Y-104821500D01*
X143101042Y-104829208D01*
X142939760Y-104854753D01*
X142737585Y-104920444D01*
X142548179Y-105016951D01*
X142376213Y-105141890D01*
X142225890Y-105292213D01*
X142100949Y-105464182D01*
X142096484Y-105472946D01*
X142048509Y-105523742D01*
X141980688Y-105540536D01*
X141914553Y-105517998D01*
X141875516Y-105472946D01*
X141871050Y-105464182D01*
X141746109Y-105292213D01*
X141595786Y-105141890D01*
X141423820Y-105016951D01*
X141234414Y-104920444D01*
X141234413Y-104920443D01*
X141234412Y-104920443D01*
X141032243Y-104854754D01*
X141032241Y-104854753D01*
X141032240Y-104854753D01*
X140870957Y-104829208D01*
X140822287Y-104821500D01*
X140609713Y-104821500D01*
X140561042Y-104829208D01*
X140399760Y-104854753D01*
X140197585Y-104920444D01*
X140008179Y-105016951D01*
X139836213Y-105141890D01*
X139685890Y-105292213D01*
X139560949Y-105464182D01*
X139556484Y-105472946D01*
X139508509Y-105523742D01*
X139440688Y-105540536D01*
X139374553Y-105517998D01*
X139335516Y-105472946D01*
X139331050Y-105464182D01*
X139206109Y-105292213D01*
X139055786Y-105141890D01*
X138883820Y-105016951D01*
X138694414Y-104920444D01*
X138694413Y-104920443D01*
X138694412Y-104920443D01*
X138492243Y-104854754D01*
X138492241Y-104854753D01*
X138492240Y-104854753D01*
X138330957Y-104829208D01*
X138282287Y-104821500D01*
X138069713Y-104821500D01*
X138021042Y-104829208D01*
X137859760Y-104854753D01*
X137657585Y-104920444D01*
X137468179Y-105016951D01*
X137296215Y-105141889D01*
X137182673Y-105255431D01*
X137121350Y-105288915D01*
X137051658Y-105283931D01*
X136995725Y-105242059D01*
X136978810Y-105211082D01*
X136929797Y-105079671D01*
X136929793Y-105079664D01*
X136843547Y-104964455D01*
X136843544Y-104964452D01*
X136728335Y-104878206D01*
X136728328Y-104878202D01*
X136593482Y-104827908D01*
X136593483Y-104827908D01*
X136533883Y-104821501D01*
X136533881Y-104821500D01*
X136533873Y-104821500D01*
X136533865Y-104821500D01*
X134836500Y-104821500D01*
X134769461Y-104801815D01*
X134723706Y-104749011D01*
X134712500Y-104697500D01*
X134712500Y-101900097D01*
X134732185Y-101833058D01*
X134748819Y-101812416D01*
X135859449Y-100701786D01*
X137174662Y-99386572D01*
X137235983Y-99353089D01*
X137238150Y-99352638D01*
X137314372Y-99337476D01*
X137393497Y-99321737D01*
X137539179Y-99261394D01*
X137578766Y-99234943D01*
X137670875Y-99173398D01*
X137737553Y-99152520D01*
X137739766Y-99152500D01*
X142676234Y-99152500D01*
X142694377Y-99157827D01*
G37*
%TD.AperFunction*%
%TA.AperFunction,Conductor*%
G36*
X142029703Y-84967384D02*
G01*
X142036181Y-84973416D01*
X143279139Y-86216374D01*
X143279149Y-86216385D01*
X143283479Y-86220715D01*
X143283480Y-86220716D01*
X143395284Y-86332520D01*
X143395286Y-86332521D01*
X143395290Y-86332524D01*
X143532209Y-86411573D01*
X143532216Y-86411577D01*
X143634773Y-86439057D01*
X143684942Y-86452500D01*
X143684943Y-86452500D01*
X151002846Y-86452500D01*
X151032287Y-86461144D01*
X151062265Y-86467664D01*
X151067284Y-86471421D01*
X151069885Y-86472185D01*
X151090521Y-86488813D01*
X151097822Y-86496113D01*
X151326083Y-86724374D01*
X151326093Y-86724385D01*
X151330423Y-86728715D01*
X151330424Y-86728716D01*
X151442228Y-86840520D01*
X151503683Y-86876000D01*
X151529039Y-86890639D01*
X151529041Y-86890641D01*
X151562702Y-86910075D01*
X151579159Y-86919577D01*
X151731887Y-86960500D01*
X151890001Y-86960500D01*
X153329331Y-86960500D01*
X153329347Y-86960501D01*
X153336943Y-86960501D01*
X153495054Y-86960501D01*
X153495057Y-86960501D01*
X153647785Y-86919577D01*
X153697904Y-86890639D01*
X153784716Y-86840520D01*
X153896520Y-86728716D01*
X153896520Y-86728714D01*
X153906728Y-86718507D01*
X153906730Y-86718504D01*
X154090318Y-86534916D01*
X154151641Y-86501431D01*
X154221333Y-86506415D01*
X154265680Y-86534916D01*
X156126583Y-88395819D01*
X156160068Y-88457142D01*
X156155084Y-88526834D01*
X156113212Y-88582767D01*
X156047748Y-88607184D01*
X156038902Y-88607500D01*
X155877155Y-88607500D01*
X155722510Y-88638261D01*
X155722498Y-88638264D01*
X155576827Y-88698602D01*
X155576814Y-88698609D01*
X155445711Y-88786210D01*
X155445707Y-88786213D01*
X155334213Y-88897707D01*
X155334210Y-88897711D01*
X155246609Y-89028814D01*
X155246602Y-89028827D01*
X155186264Y-89174498D01*
X155186261Y-89174510D01*
X155155500Y-89329153D01*
X155155500Y-89486846D01*
X155186261Y-89641489D01*
X155186264Y-89641501D01*
X155246602Y-89787172D01*
X155246609Y-89787185D01*
X155334602Y-89918874D01*
X155355480Y-89985551D01*
X155355500Y-89987765D01*
X155355500Y-91353330D01*
X155355499Y-91353348D01*
X155355499Y-91519054D01*
X155355498Y-91519054D01*
X155396424Y-91671789D01*
X155396425Y-91671790D01*
X155417086Y-91707575D01*
X155417087Y-91707576D01*
X155475477Y-91808712D01*
X155475481Y-91808717D01*
X155594349Y-91927585D01*
X155594355Y-91927590D01*
X157153425Y-93486660D01*
X157161925Y-93502117D01*
X157174221Y-93514268D01*
X157185413Y-93544830D01*
X157186751Y-93547263D01*
X157187500Y-93550610D01*
X157187500Y-93550842D01*
X157218263Y-93705497D01*
X157226736Y-93725954D01*
X157229079Y-93736422D01*
X157227467Y-93761011D01*
X157230102Y-93785518D01*
X157225221Y-93795266D01*
X157224509Y-93806142D01*
X157209858Y-93825956D01*
X157198826Y-93847997D01*
X157189451Y-93853558D01*
X157182971Y-93862324D01*
X157159930Y-93871073D01*
X157138737Y-93883648D01*
X157120928Y-93885884D01*
X157117653Y-93887129D01*
X157115182Y-93886606D01*
X157108072Y-93887500D01*
X151978669Y-93887500D01*
X151978653Y-93887499D01*
X151971057Y-93887499D01*
X151812943Y-93887499D01*
X151698397Y-93918192D01*
X151660214Y-93928423D01*
X151618480Y-93952519D01*
X151618479Y-93952519D01*
X151523287Y-94007477D01*
X151523282Y-94007481D01*
X151411478Y-94119286D01*
X150963680Y-94567083D01*
X150902357Y-94600568D01*
X150832665Y-94595584D01*
X150788318Y-94567083D01*
X149615207Y-93393972D01*
X149581722Y-93332649D01*
X149586706Y-93262957D01*
X149588302Y-93258900D01*
X149613737Y-93197497D01*
X149644500Y-93042842D01*
X149644500Y-92885158D01*
X149644500Y-92885155D01*
X149644499Y-92885153D01*
X149637549Y-92850213D01*
X149613737Y-92730503D01*
X149564631Y-92611951D01*
X149557163Y-92542483D01*
X149588438Y-92480004D01*
X149648527Y-92444352D01*
X149679193Y-92440500D01*
X151651660Y-92440500D01*
X151651676Y-92440501D01*
X151659272Y-92440501D01*
X151817383Y-92440501D01*
X151817386Y-92440501D01*
X151970114Y-92399577D01*
X152034040Y-92362669D01*
X152107045Y-92320520D01*
X152218849Y-92208716D01*
X152218849Y-92208714D01*
X152229053Y-92198511D01*
X152229057Y-92198506D01*
X153296306Y-91131257D01*
X153296311Y-91131253D01*
X153306514Y-91121049D01*
X153306516Y-91121049D01*
X153418320Y-91009245D01*
X153492695Y-90880423D01*
X153497377Y-90872314D01*
X153538300Y-90719586D01*
X153538300Y-90561472D01*
X153538300Y-90064414D01*
X153499146Y-89918289D01*
X153497377Y-89911686D01*
X153451614Y-89832423D01*
X153418320Y-89774755D01*
X153306516Y-89662951D01*
X153306515Y-89662950D01*
X153302185Y-89658620D01*
X153302174Y-89658610D01*
X153073919Y-89430355D01*
X153073917Y-89430352D01*
X152955046Y-89311481D01*
X152955045Y-89311480D01*
X152868233Y-89261360D01*
X152868233Y-89261359D01*
X152868229Y-89261358D01*
X152818114Y-89232423D01*
X152665386Y-89191499D01*
X152507272Y-89191499D01*
X152499676Y-89191499D01*
X152499660Y-89191500D01*
X151086669Y-89191500D01*
X151086653Y-89191499D01*
X151079057Y-89191499D01*
X150920943Y-89191499D01*
X150813587Y-89220265D01*
X150768210Y-89232424D01*
X150768209Y-89232425D01*
X150718096Y-89261359D01*
X150718095Y-89261360D01*
X150674689Y-89286420D01*
X150631285Y-89311479D01*
X150631282Y-89311481D01*
X150455681Y-89487083D01*
X150394358Y-89520568D01*
X150324666Y-89515584D01*
X150294752Y-89499456D01*
X150287062Y-89493826D01*
X150228716Y-89435480D01*
X150133522Y-89380520D01*
X150127698Y-89377157D01*
X150127692Y-89377153D01*
X150091790Y-89356425D01*
X150091789Y-89356424D01*
X150079263Y-89353067D01*
X149939057Y-89315499D01*
X149780943Y-89315499D01*
X149773347Y-89315499D01*
X149773331Y-89315500D01*
X146985947Y-89315500D01*
X146918908Y-89295815D01*
X146873153Y-89243011D01*
X146864330Y-89215694D01*
X146856137Y-89174503D01*
X146801565Y-89042753D01*
X146795797Y-89028827D01*
X146795790Y-89028814D01*
X146708189Y-88897711D01*
X146708186Y-88897707D01*
X146596692Y-88786213D01*
X146596688Y-88786210D01*
X146513299Y-88730491D01*
X146468494Y-88676879D01*
X146459787Y-88607554D01*
X146460573Y-88603197D01*
X146486900Y-88470844D01*
X146486900Y-88313155D01*
X146486899Y-88313153D01*
X146484183Y-88299499D01*
X146456137Y-88158503D01*
X146438443Y-88115785D01*
X146395797Y-88012827D01*
X146395790Y-88012814D01*
X146308189Y-87881711D01*
X146308186Y-87881707D01*
X146196692Y-87770213D01*
X146196688Y-87770210D01*
X146065585Y-87682609D01*
X146065572Y-87682602D01*
X145919901Y-87622264D01*
X145919889Y-87622261D01*
X145765245Y-87591500D01*
X145765242Y-87591500D01*
X145607558Y-87591500D01*
X145607555Y-87591500D01*
X145452910Y-87622261D01*
X145452898Y-87622264D01*
X145307227Y-87682602D01*
X145307214Y-87682609D01*
X145176111Y-87770210D01*
X145176107Y-87770213D01*
X145064613Y-87881707D01*
X145064610Y-87881711D01*
X144977009Y-88012814D01*
X144977002Y-88012827D01*
X144916664Y-88158498D01*
X144916661Y-88158508D01*
X144885761Y-88313850D01*
X144853376Y-88375761D01*
X144851825Y-88377339D01*
X144457984Y-88771181D01*
X144431056Y-88785884D01*
X144405238Y-88802477D01*
X144399037Y-88803368D01*
X144396661Y-88804666D01*
X144370303Y-88807500D01*
X144343766Y-88807500D01*
X144276727Y-88787815D01*
X144274875Y-88786602D01*
X144143185Y-88698609D01*
X144143172Y-88698602D01*
X143997501Y-88638264D01*
X143997489Y-88638261D01*
X143842845Y-88607500D01*
X143842842Y-88607500D01*
X143685158Y-88607500D01*
X143685155Y-88607500D01*
X143530510Y-88638261D01*
X143530498Y-88638264D01*
X143384827Y-88698602D01*
X143384814Y-88698609D01*
X143253711Y-88786210D01*
X143253707Y-88786213D01*
X143142213Y-88897707D01*
X143142210Y-88897711D01*
X143054609Y-89028814D01*
X143054602Y-89028827D01*
X142994264Y-89174498D01*
X142994261Y-89174510D01*
X142963500Y-89329153D01*
X142963500Y-89486846D01*
X142994261Y-89641489D01*
X142994264Y-89641501D01*
X143054602Y-89787172D01*
X143054609Y-89787185D01*
X143142210Y-89918288D01*
X143142213Y-89918292D01*
X143253707Y-90029786D01*
X143253711Y-90029789D01*
X143384814Y-90117390D01*
X143384827Y-90117397D01*
X143516341Y-90171871D01*
X143530503Y-90177737D01*
X143595147Y-90190595D01*
X143685849Y-90208638D01*
X143747760Y-90241023D01*
X143749339Y-90242574D01*
X145311139Y-91804374D01*
X145311149Y-91804385D01*
X145315479Y-91808715D01*
X145315480Y-91808716D01*
X145427284Y-91920520D01*
X145503883Y-91964744D01*
X145564215Y-91999577D01*
X145716943Y-92040501D01*
X145716946Y-92040501D01*
X145882653Y-92040501D01*
X145882669Y-92040500D01*
X147628833Y-92040500D01*
X147634657Y-92042210D01*
X147640620Y-92041061D01*
X147667798Y-92051941D01*
X147695872Y-92060185D01*
X147699846Y-92064771D01*
X147705485Y-92067029D01*
X147722466Y-92090876D01*
X147741627Y-92112989D01*
X147742491Y-92118997D01*
X147746013Y-92123944D01*
X147747405Y-92153179D01*
X147751571Y-92182147D01*
X147749122Y-92189220D01*
X147749338Y-92193734D01*
X147736220Y-92226499D01*
X147719993Y-92254606D01*
X147684423Y-92316215D01*
X147643499Y-92468943D01*
X147643499Y-92468945D01*
X147643499Y-92637046D01*
X147643500Y-92637059D01*
X147643500Y-94817330D01*
X147643499Y-94817348D01*
X147643499Y-94983054D01*
X147643498Y-94983054D01*
X147643499Y-94983057D01*
X147677457Y-95109789D01*
X147684424Y-95135787D01*
X147685995Y-95138508D01*
X147685993Y-95138508D01*
X147685999Y-95138515D01*
X147763475Y-95272709D01*
X147763481Y-95272717D01*
X147882349Y-95391585D01*
X147882355Y-95391590D01*
X150252735Y-97761970D01*
X150286220Y-97823293D01*
X150281236Y-97892985D01*
X150239364Y-97948918D01*
X150173900Y-97973335D01*
X150132961Y-97969426D01*
X150107944Y-97962722D01*
X150066057Y-97951499D01*
X149907943Y-97951499D01*
X149900347Y-97951499D01*
X149900331Y-97951500D01*
X143835766Y-97951500D01*
X143768727Y-97931815D01*
X143766875Y-97930602D01*
X143635185Y-97842609D01*
X143635172Y-97842602D01*
X143489501Y-97782264D01*
X143489491Y-97782261D01*
X143334149Y-97751361D01*
X143272238Y-97718976D01*
X143270660Y-97717425D01*
X141529554Y-95976319D01*
X141496069Y-95914996D01*
X141501053Y-95845304D01*
X141542925Y-95789371D01*
X141593043Y-95767020D01*
X141599497Y-95765737D01*
X141712166Y-95719067D01*
X141745172Y-95705397D01*
X141745172Y-95705396D01*
X141745179Y-95705394D01*
X141876289Y-95617789D01*
X141987789Y-95506289D01*
X142075394Y-95375179D01*
X142079728Y-95364717D01*
X142118752Y-95270503D01*
X142135737Y-95229497D01*
X142166500Y-95074842D01*
X142166500Y-94917158D01*
X142166500Y-94917155D01*
X142166499Y-94917153D01*
X142156213Y-94865443D01*
X142135737Y-94762503D01*
X142129425Y-94747265D01*
X142075397Y-94616827D01*
X142075390Y-94616814D01*
X141987789Y-94485711D01*
X141987786Y-94485707D01*
X141876296Y-94374217D01*
X141871587Y-94370353D01*
X141873039Y-94368583D01*
X141834784Y-94322771D01*
X141824500Y-94273327D01*
X141824500Y-88971765D01*
X141844185Y-88904726D01*
X141845398Y-88902874D01*
X141933393Y-88771181D01*
X141933397Y-88771172D01*
X141950247Y-88730491D01*
X141993737Y-88625497D01*
X142024500Y-88470842D01*
X142024500Y-88313158D01*
X142024500Y-88313155D01*
X142024499Y-88313153D01*
X142021783Y-88299499D01*
X141993737Y-88158503D01*
X141976043Y-88115785D01*
X141933397Y-88012827D01*
X141933390Y-88012814D01*
X141845398Y-87881125D01*
X141824520Y-87814447D01*
X141824500Y-87812234D01*
X141824500Y-85061097D01*
X141844185Y-84994058D01*
X141896989Y-84948303D01*
X141966147Y-84938359D01*
X142029703Y-84967384D01*
G37*
%TD.AperFunction*%
%TA.AperFunction,Conductor*%
G36*
X175266090Y-90564799D02*
G01*
X175272428Y-90563502D01*
X175299377Y-90573931D01*
X175327234Y-90581573D01*
X175334998Y-90587716D01*
X175337589Y-90588719D01*
X175339396Y-90591196D01*
X175349745Y-90599384D01*
X175473681Y-90723320D01*
X175507166Y-90784642D01*
X175510000Y-90811000D01*
X175510000Y-91768988D01*
X175452993Y-91736075D01*
X175325826Y-91702000D01*
X175194174Y-91702000D01*
X175067007Y-91736075D01*
X175010000Y-91768988D01*
X175010000Y-90846611D01*
X175003465Y-90834645D01*
X174987459Y-90812708D01*
X174986968Y-90804433D01*
X174982996Y-90797158D01*
X174984933Y-90770066D01*
X174983328Y-90742961D01*
X174987388Y-90735736D01*
X174987980Y-90727466D01*
X175004257Y-90705722D01*
X175017561Y-90682052D01*
X175026282Y-90676301D01*
X175029852Y-90671533D01*
X175046072Y-90661249D01*
X175051266Y-90658494D01*
X175131179Y-90625394D01*
X175198414Y-90580468D01*
X175203979Y-90577518D01*
X175232284Y-90571721D01*
X175259854Y-90563089D01*
X175266090Y-90564799D01*
G37*
%TD.AperFunction*%
%TD*%
M02*
