%TF.GenerationSoftware,KiCad,Pcbnew,10.0.3*%
%TF.CreationDate,2026-06-13T13:31:34+05:30*%
%TF.ProjectId,mcu,6d63752e-6b69-4636-9164-5f7063625858,rev?*%
%TF.SameCoordinates,Original*%
%TF.FileFunction,Soldermask,Top*%
%TF.FilePolarity,Negative*%
%FSLAX46Y46*%
G04 Gerber Fmt 4.6, Leading zero omitted, Abs format (unit mm)*
G04 Created by KiCad (PCBNEW 10.0.3) date 2026-06-13 13:31:34*
%MOMM*%
%LPD*%
G01*
G04 APERTURE LIST*
G04 Aperture macros list*
%AMRoundRect*
0 Rectangle with rounded corners*
0 $1 Rounding radius*
0 $2 $3 $4 $5 $6 $7 $8 $9 X,Y pos of 4 corners*
0 Add a 4 corners polygon primitive as box body*
4,1,4,$2,$3,$4,$5,$6,$7,$8,$9,$2,$3,0*
0 Add four circle primitives for the rounded corners*
1,1,$1+$1,$2,$3*
1,1,$1+$1,$4,$5*
1,1,$1+$1,$6,$7*
1,1,$1+$1,$8,$9*
0 Add four rect primitives between the rounded corners*
20,1,$1+$1,$2,$3,$4,$5,0*
20,1,$1+$1,$4,$5,$6,$7,0*
20,1,$1+$1,$6,$7,$8,$9,0*
20,1,$1+$1,$8,$9,$2,$3,0*%
G04 Aperture macros list end*
%ADD10RoundRect,0.094250X-0.742750X-0.282750X0.742750X-0.282750X0.742750X0.282750X-0.742750X0.282750X0*%
%ADD11RoundRect,0.094250X-0.282750X-0.742750X0.282750X-0.742750X0.282750X0.742750X-0.282750X0.742750X0*%
%ADD12C,2.100000*%
%ADD13RoundRect,0.162500X-0.650000X-0.162500X0.650000X-0.162500X0.650000X0.162500X-0.650000X0.162500X0*%
%ADD14RoundRect,0.250000X-0.250000X-0.475000X0.250000X-0.475000X0.250000X0.475000X-0.250000X0.475000X0*%
%ADD15RoundRect,0.250000X-0.262500X-0.450000X0.262500X-0.450000X0.262500X0.450000X-0.262500X0.450000X0*%
%ADD16RoundRect,0.250001X-1.499999X-0.949999X1.499999X-0.949999X1.499999X0.949999X-1.499999X0.949999X0*%
%ADD17RoundRect,0.250001X0.949999X-1.499999X0.949999X1.499999X-0.949999X1.499999X-0.949999X-1.499999X0*%
%ADD18R,1.460500X0.533400*%
%ADD19RoundRect,0.250000X0.262500X0.450000X-0.262500X0.450000X-0.262500X-0.450000X0.262500X-0.450000X0*%
%ADD20R,1.700000X1.700000*%
%ADD21C,1.700000*%
%ADD22RoundRect,0.243750X-0.243750X-0.456250X0.243750X-0.456250X0.243750X0.456250X-0.243750X0.456250X0*%
%ADD23RoundRect,0.250000X0.250000X0.475000X-0.250000X0.475000X-0.250000X-0.475000X0.250000X-0.475000X0*%
G04 APERTURE END LIST*
D10*
%TO.C,U4*%
X157586000Y-85592000D03*
X157586000Y-86392000D03*
X157586000Y-87192000D03*
X157586000Y-87992000D03*
X157586000Y-88792000D03*
X157586000Y-89592000D03*
X157586000Y-90392000D03*
X157586000Y-91192000D03*
X149246000Y-91192000D03*
X149246000Y-90392000D03*
X149246000Y-89592000D03*
X149246000Y-88792000D03*
X149246000Y-87992000D03*
X149246000Y-87192000D03*
X149246000Y-86392000D03*
X149246000Y-85592000D03*
D11*
X150616000Y-84222000D03*
X151416000Y-84222000D03*
X152216000Y-84222000D03*
X153016000Y-84222000D03*
X153816000Y-84222000D03*
X154616000Y-84222000D03*
X155416000Y-84222000D03*
X156216000Y-84222000D03*
X156216000Y-92562000D03*
X155416000Y-92562000D03*
X154616000Y-92562000D03*
X153816000Y-92562000D03*
X153016000Y-92562000D03*
X152216000Y-92562000D03*
X151416000Y-92562000D03*
X150616000Y-92562000D03*
%TD*%
D12*
%TO.C,H1*%
X130810000Y-77216000D03*
%TD*%
%TO.C,H2*%
X176000000Y-77200000D03*
%TD*%
%TO.C,H3*%
X130810000Y-106172000D03*
%TD*%
%TO.C,H4*%
X176022000Y-106299000D03*
%TD*%
D13*
%TO.C,U1*%
X143287500Y-84455000D03*
X143287500Y-85725000D03*
X143287500Y-86995000D03*
X143287500Y-88265000D03*
X136112500Y-88265000D03*
X136112500Y-86995000D03*
X136112500Y-85725000D03*
X136112500Y-84455000D03*
%TD*%
D14*
%TO.C,C5*%
X157922000Y-77216000D03*
X156022000Y-77216000D03*
%TD*%
D15*
%TO.C,R4*%
X164996500Y-81280000D03*
X163171500Y-81280000D03*
%TD*%
%TO.C,R6*%
X169060500Y-81280000D03*
X167235500Y-81280000D03*
%TD*%
D16*
%TO.C,Y2*%
X150816000Y-98044000D03*
X156016000Y-98044000D03*
%TD*%
D17*
%TO.C,Y1*%
X131572000Y-99628000D03*
X131572000Y-94428000D03*
%TD*%
D18*
%TO.C,U3*%
X136975850Y-91567000D03*
X136975850Y-92837000D03*
X136975850Y-94107000D03*
X136975850Y-95377000D03*
X142424150Y-95377000D03*
X142424150Y-94107000D03*
X142424150Y-92837000D03*
X142424150Y-91567000D03*
%TD*%
D13*
%TO.C,U2*%
X136112500Y-76835000D03*
X136112500Y-78105000D03*
X136112500Y-79375000D03*
X136112500Y-80645000D03*
X143287500Y-80645000D03*
X143287500Y-79375000D03*
X143287500Y-78105000D03*
X143287500Y-76835000D03*
%TD*%
D19*
%TO.C,R7*%
X164996500Y-90424000D03*
X163171500Y-90424000D03*
%TD*%
D15*
%TO.C,R5*%
X167235500Y-85852000D03*
X169060500Y-85852000D03*
%TD*%
D19*
%TO.C,R3*%
X164996500Y-85852000D03*
X163171500Y-85852000D03*
%TD*%
%TO.C,R2*%
X143660500Y-100584000D03*
X141835500Y-100584000D03*
%TD*%
D15*
%TO.C,R1*%
X136247500Y-100584000D03*
X138072500Y-100584000D03*
%TD*%
D20*
%TO.C,J4*%
X172969000Y-82296000D03*
D21*
X175509000Y-82296000D03*
X172969000Y-84836000D03*
X175509000Y-84836000D03*
X172969000Y-87376000D03*
X175509000Y-87376000D03*
%TD*%
D20*
%TO.C,J3*%
X135636000Y-106172000D03*
D21*
X138176000Y-106172000D03*
X140716000Y-106172000D03*
X143256000Y-106172000D03*
X145796000Y-106172000D03*
X148336000Y-106172000D03*
X150876000Y-106172000D03*
X153416000Y-106172000D03*
X155956000Y-106172000D03*
%TD*%
D20*
%TO.C,J2*%
X160782000Y-106172000D03*
D21*
X163322000Y-106172000D03*
X165862000Y-106172000D03*
X168402000Y-106172000D03*
%TD*%
D20*
%TO.C,J1*%
X175260000Y-92202000D03*
D21*
X175260000Y-94742000D03*
X175260000Y-97282000D03*
X175260000Y-99822000D03*
%TD*%
D22*
%TO.C,D2*%
X163146500Y-77216000D03*
X165021500Y-77216000D03*
%TD*%
%TO.C,D1*%
X167210500Y-77216000D03*
X169085500Y-77216000D03*
%TD*%
D23*
%TO.C,C4*%
X165034000Y-98044000D03*
X163134000Y-98044000D03*
%TD*%
%TO.C,C3*%
X165034000Y-94488000D03*
X163134000Y-94488000D03*
%TD*%
D14*
%TO.C,C2*%
X151450000Y-77216000D03*
X153350000Y-77216000D03*
%TD*%
%TO.C,C1*%
X147386000Y-77216000D03*
X149286000Y-77216000D03*
%TD*%
D20*
%TO.C,BT1*%
X131572000Y-86609000D03*
D21*
X131572000Y-89149000D03*
%TD*%
M02*
