M48
; DRILL file KiCad 10.0.3 date 2026-06-13T13:31:21
; FORMAT={-:-/ absolute / metric / decimal}
; #@! TF.CreationDate,2026-06-13T13:31:21+05:30
; #@! TF.GenerationSoftware,Kicad,Pcbnew,10.0.3
; #@! TF.FileFunction,Plated,1,2,PTH
FMAT,2
METRIC
; #@! TA.AperFunction,Plated,PTH,ViaDrill
T1C0.300
; #@! TA.AperFunction,Plated,PTH,ComponentDrill
T2C1.000
%
G90
G05
T1
X134.112Y-88.265
X135.636Y-94.996
X136.144Y-82.296
X137.16Y-98.552
X139.192Y-84.455
X139.7Y-91.44
X140.208Y-83.312
X140.208Y-86.868
X141.224Y-83.312
X141.224Y-88.392
X141.366Y-94.996
X143.256Y-98.552
X143.764Y-89.408
X144.89Y-87.266
X145.686Y-88.392
X146.086Y-89.408
X148.844Y-92.964
X150.368Y-90.424
X150.876Y-87.192
X150.876Y-95.504
X151.892Y-78.74
X152.059Y-85.76
X152.338Y-90.392
X152.4Y-82.804
X152.908Y-85.76
X153.416Y-82.154
X154.432Y-85.344
X154.94Y-101.6
X155.956Y-89.408
X157.48Y-95.088
X157.988Y-83.404
X157.988Y-93.472
X158.496Y-91.948
X159.512Y-85.852
X160.241Y-79.535
X161.036Y-91.948
X162.052Y-94.488
X163.068Y-87.376
X164.996Y-88.9
X169.545Y-91.362
X169.672Y-93.472
X170.18Y-80.264
X171.196Y-83.312
X171.237Y-84.795
X174.719Y-86.22
X174.752Y-89.916
T2
X131.572Y-86.609
X131.572Y-89.149
X135.636Y-106.172
X138.176Y-106.172
X140.716Y-106.172
X143.256Y-106.172
X145.796Y-106.172
X148.336Y-106.172
X150.876Y-106.172
X153.416Y-106.172
X155.956Y-106.172
X160.782Y-106.172
X163.322Y-106.172
X165.862Y-106.172
X168.402Y-106.172
X172.969Y-82.296
X172.969Y-84.836
X172.969Y-87.376
X175.26Y-92.202
X175.26Y-94.742
X175.26Y-97.282
X175.26Y-99.822
X175.509Y-82.296
X175.509Y-84.836
X175.509Y-87.376
M30
