%TF.GenerationSoftware,KiCad,Pcbnew,10.0.3*%
%TF.CreationDate,2026-06-13T13:31:34+05:30*%
%TF.ProjectId,mcu,6d63752e-6b69-4636-9164-5f7063625858,rev?*%
%TF.SameCoordinates,Original*%
%TF.FileFunction,Legend,Top*%
%TF.FilePolarity,Positive*%
%FSLAX46Y46*%
G04 Gerber Fmt 4.6, Leading zero omitted, Abs format (unit mm)*
G04 Created by KiCad (PCBNEW 10.0.3) date 2026-06-13 13:31:34*
%MOMM*%
%LPD*%
G01*
G04 APERTURE LIST*
%ADD10C,0.150000*%
%ADD11C,0.127000*%
%ADD12C,0.200000*%
%ADD13C,0.120000*%
%ADD14C,0.152400*%
G04 APERTURE END LIST*
D10*
X152654095Y-88100819D02*
X152654095Y-88910342D01*
X152654095Y-88910342D02*
X152701714Y-89005580D01*
X152701714Y-89005580D02*
X152749333Y-89053200D01*
X152749333Y-89053200D02*
X152844571Y-89100819D01*
X152844571Y-89100819D02*
X153035047Y-89100819D01*
X153035047Y-89100819D02*
X153130285Y-89053200D01*
X153130285Y-89053200D02*
X153177904Y-89005580D01*
X153177904Y-89005580D02*
X153225523Y-88910342D01*
X153225523Y-88910342D02*
X153225523Y-88100819D01*
X154130285Y-88434152D02*
X154130285Y-89100819D01*
X153892190Y-88053200D02*
X153654095Y-88767485D01*
X153654095Y-88767485D02*
X154273142Y-88767485D01*
X130048095Y-80718819D02*
X130048095Y-79718819D01*
X130048095Y-80195009D02*
X130619523Y-80195009D01*
X130619523Y-80718819D02*
X130619523Y-79718819D01*
X131619523Y-80718819D02*
X131048095Y-80718819D01*
X131333809Y-80718819D02*
X131333809Y-79718819D01*
X131333809Y-79718819D02*
X131238571Y-79861676D01*
X131238571Y-79861676D02*
X131143333Y-79956914D01*
X131143333Y-79956914D02*
X131048095Y-80004533D01*
X176530095Y-80718819D02*
X176530095Y-79718819D01*
X176530095Y-80195009D02*
X177101523Y-80195009D01*
X177101523Y-80718819D02*
X177101523Y-79718819D01*
X177530095Y-79814057D02*
X177577714Y-79766438D01*
X177577714Y-79766438D02*
X177672952Y-79718819D01*
X177672952Y-79718819D02*
X177911047Y-79718819D01*
X177911047Y-79718819D02*
X178006285Y-79766438D01*
X178006285Y-79766438D02*
X178053904Y-79814057D01*
X178053904Y-79814057D02*
X178101523Y-79909295D01*
X178101523Y-79909295D02*
X178101523Y-80004533D01*
X178101523Y-80004533D02*
X178053904Y-80147390D01*
X178053904Y-80147390D02*
X177482476Y-80718819D01*
X177482476Y-80718819D02*
X178101523Y-80718819D01*
X130048095Y-103576819D02*
X130048095Y-102576819D01*
X130048095Y-103053009D02*
X130619523Y-103053009D01*
X130619523Y-103576819D02*
X130619523Y-102576819D01*
X131000476Y-102576819D02*
X131619523Y-102576819D01*
X131619523Y-102576819D02*
X131286190Y-102957771D01*
X131286190Y-102957771D02*
X131429047Y-102957771D01*
X131429047Y-102957771D02*
X131524285Y-103005390D01*
X131524285Y-103005390D02*
X131571904Y-103053009D01*
X131571904Y-103053009D02*
X131619523Y-103148247D01*
X131619523Y-103148247D02*
X131619523Y-103386342D01*
X131619523Y-103386342D02*
X131571904Y-103481580D01*
X131571904Y-103481580D02*
X131524285Y-103529200D01*
X131524285Y-103529200D02*
X131429047Y-103576819D01*
X131429047Y-103576819D02*
X131143333Y-103576819D01*
X131143333Y-103576819D02*
X131048095Y-103529200D01*
X131048095Y-103529200D02*
X131000476Y-103481580D01*
X175260095Y-103703819D02*
X175260095Y-102703819D01*
X175260095Y-103180009D02*
X175831523Y-103180009D01*
X175831523Y-103703819D02*
X175831523Y-102703819D01*
X176736285Y-103037152D02*
X176736285Y-103703819D01*
X176498190Y-102656200D02*
X176260095Y-103370485D01*
X176260095Y-103370485D02*
X176879142Y-103370485D01*
X138938095Y-82214819D02*
X138938095Y-83024342D01*
X138938095Y-83024342D02*
X138985714Y-83119580D01*
X138985714Y-83119580D02*
X139033333Y-83167200D01*
X139033333Y-83167200D02*
X139128571Y-83214819D01*
X139128571Y-83214819D02*
X139319047Y-83214819D01*
X139319047Y-83214819D02*
X139414285Y-83167200D01*
X139414285Y-83167200D02*
X139461904Y-83119580D01*
X139461904Y-83119580D02*
X139509523Y-83024342D01*
X139509523Y-83024342D02*
X139509523Y-82214819D01*
X140509523Y-83214819D02*
X139938095Y-83214819D01*
X140223809Y-83214819D02*
X140223809Y-82214819D01*
X140223809Y-82214819D02*
X140128571Y-82357676D01*
X140128571Y-82357676D02*
X140033333Y-82452914D01*
X140033333Y-82452914D02*
X139938095Y-82500533D01*
X156805333Y-75895580D02*
X156757714Y-75943200D01*
X156757714Y-75943200D02*
X156614857Y-75990819D01*
X156614857Y-75990819D02*
X156519619Y-75990819D01*
X156519619Y-75990819D02*
X156376762Y-75943200D01*
X156376762Y-75943200D02*
X156281524Y-75847961D01*
X156281524Y-75847961D02*
X156233905Y-75752723D01*
X156233905Y-75752723D02*
X156186286Y-75562247D01*
X156186286Y-75562247D02*
X156186286Y-75419390D01*
X156186286Y-75419390D02*
X156233905Y-75228914D01*
X156233905Y-75228914D02*
X156281524Y-75133676D01*
X156281524Y-75133676D02*
X156376762Y-75038438D01*
X156376762Y-75038438D02*
X156519619Y-74990819D01*
X156519619Y-74990819D02*
X156614857Y-74990819D01*
X156614857Y-74990819D02*
X156757714Y-75038438D01*
X156757714Y-75038438D02*
X156805333Y-75086057D01*
X157710095Y-74990819D02*
X157233905Y-74990819D01*
X157233905Y-74990819D02*
X157186286Y-75467009D01*
X157186286Y-75467009D02*
X157233905Y-75419390D01*
X157233905Y-75419390D02*
X157329143Y-75371771D01*
X157329143Y-75371771D02*
X157567238Y-75371771D01*
X157567238Y-75371771D02*
X157662476Y-75419390D01*
X157662476Y-75419390D02*
X157710095Y-75467009D01*
X157710095Y-75467009D02*
X157757714Y-75562247D01*
X157757714Y-75562247D02*
X157757714Y-75800342D01*
X157757714Y-75800342D02*
X157710095Y-75895580D01*
X157710095Y-75895580D02*
X157662476Y-75943200D01*
X157662476Y-75943200D02*
X157567238Y-75990819D01*
X157567238Y-75990819D02*
X157329143Y-75990819D01*
X157329143Y-75990819D02*
X157233905Y-75943200D01*
X157233905Y-75943200D02*
X157186286Y-75895580D01*
X163917333Y-80084819D02*
X163584000Y-79608628D01*
X163345905Y-80084819D02*
X163345905Y-79084819D01*
X163345905Y-79084819D02*
X163726857Y-79084819D01*
X163726857Y-79084819D02*
X163822095Y-79132438D01*
X163822095Y-79132438D02*
X163869714Y-79180057D01*
X163869714Y-79180057D02*
X163917333Y-79275295D01*
X163917333Y-79275295D02*
X163917333Y-79418152D01*
X163917333Y-79418152D02*
X163869714Y-79513390D01*
X163869714Y-79513390D02*
X163822095Y-79561009D01*
X163822095Y-79561009D02*
X163726857Y-79608628D01*
X163726857Y-79608628D02*
X163345905Y-79608628D01*
X164774476Y-79418152D02*
X164774476Y-80084819D01*
X164536381Y-79037200D02*
X164298286Y-79751485D01*
X164298286Y-79751485D02*
X164917333Y-79751485D01*
X167981333Y-80084819D02*
X167648000Y-79608628D01*
X167409905Y-80084819D02*
X167409905Y-79084819D01*
X167409905Y-79084819D02*
X167790857Y-79084819D01*
X167790857Y-79084819D02*
X167886095Y-79132438D01*
X167886095Y-79132438D02*
X167933714Y-79180057D01*
X167933714Y-79180057D02*
X167981333Y-79275295D01*
X167981333Y-79275295D02*
X167981333Y-79418152D01*
X167981333Y-79418152D02*
X167933714Y-79513390D01*
X167933714Y-79513390D02*
X167886095Y-79561009D01*
X167886095Y-79561009D02*
X167790857Y-79608628D01*
X167790857Y-79608628D02*
X167409905Y-79608628D01*
X168838476Y-79084819D02*
X168648000Y-79084819D01*
X168648000Y-79084819D02*
X168552762Y-79132438D01*
X168552762Y-79132438D02*
X168505143Y-79180057D01*
X168505143Y-79180057D02*
X168409905Y-79322914D01*
X168409905Y-79322914D02*
X168362286Y-79513390D01*
X168362286Y-79513390D02*
X168362286Y-79894342D01*
X168362286Y-79894342D02*
X168409905Y-79989580D01*
X168409905Y-79989580D02*
X168457524Y-80037200D01*
X168457524Y-80037200D02*
X168552762Y-80084819D01*
X168552762Y-80084819D02*
X168743238Y-80084819D01*
X168743238Y-80084819D02*
X168838476Y-80037200D01*
X168838476Y-80037200D02*
X168886095Y-79989580D01*
X168886095Y-79989580D02*
X168933714Y-79894342D01*
X168933714Y-79894342D02*
X168933714Y-79656247D01*
X168933714Y-79656247D02*
X168886095Y-79561009D01*
X168886095Y-79561009D02*
X168838476Y-79513390D01*
X168838476Y-79513390D02*
X168743238Y-79465771D01*
X168743238Y-79465771D02*
X168552762Y-79465771D01*
X168552762Y-79465771D02*
X168457524Y-79513390D01*
X168457524Y-79513390D02*
X168409905Y-79561009D01*
X168409905Y-79561009D02*
X168362286Y-79656247D01*
X152939809Y-95222628D02*
X152939809Y-95698819D01*
X152606476Y-94698819D02*
X152939809Y-95222628D01*
X152939809Y-95222628D02*
X153273142Y-94698819D01*
X153558857Y-94794057D02*
X153606476Y-94746438D01*
X153606476Y-94746438D02*
X153701714Y-94698819D01*
X153701714Y-94698819D02*
X153939809Y-94698819D01*
X153939809Y-94698819D02*
X154035047Y-94746438D01*
X154035047Y-94746438D02*
X154082666Y-94794057D01*
X154082666Y-94794057D02*
X154130285Y-94889295D01*
X154130285Y-94889295D02*
X154130285Y-94984533D01*
X154130285Y-94984533D02*
X154082666Y-95127390D01*
X154082666Y-95127390D02*
X153511238Y-95698819D01*
X153511238Y-95698819D02*
X154130285Y-95698819D01*
X128750628Y-97504190D02*
X129226819Y-97504190D01*
X128226819Y-97837523D02*
X128750628Y-97504190D01*
X128750628Y-97504190D02*
X128226819Y-97170857D01*
X129226819Y-96313714D02*
X129226819Y-96885142D01*
X129226819Y-96599428D02*
X128226819Y-96599428D01*
X128226819Y-96599428D02*
X128369676Y-96694666D01*
X128369676Y-96694666D02*
X128464914Y-96789904D01*
X128464914Y-96789904D02*
X128512533Y-96885142D01*
X138938095Y-92926819D02*
X138938095Y-93736342D01*
X138938095Y-93736342D02*
X138985714Y-93831580D01*
X138985714Y-93831580D02*
X139033333Y-93879200D01*
X139033333Y-93879200D02*
X139128571Y-93926819D01*
X139128571Y-93926819D02*
X139319047Y-93926819D01*
X139319047Y-93926819D02*
X139414285Y-93879200D01*
X139414285Y-93879200D02*
X139461904Y-93831580D01*
X139461904Y-93831580D02*
X139509523Y-93736342D01*
X139509523Y-93736342D02*
X139509523Y-92926819D01*
X139890476Y-92926819D02*
X140509523Y-92926819D01*
X140509523Y-92926819D02*
X140176190Y-93307771D01*
X140176190Y-93307771D02*
X140319047Y-93307771D01*
X140319047Y-93307771D02*
X140414285Y-93355390D01*
X140414285Y-93355390D02*
X140461904Y-93403009D01*
X140461904Y-93403009D02*
X140509523Y-93498247D01*
X140509523Y-93498247D02*
X140509523Y-93736342D01*
X140509523Y-93736342D02*
X140461904Y-93831580D01*
X140461904Y-93831580D02*
X140414285Y-93879200D01*
X140414285Y-93879200D02*
X140319047Y-93926819D01*
X140319047Y-93926819D02*
X140033333Y-93926819D01*
X140033333Y-93926819D02*
X139938095Y-93879200D01*
X139938095Y-93879200D02*
X139890476Y-93831580D01*
X136721850Y-89345419D02*
X136721850Y-89583514D01*
X136483755Y-89488276D02*
X136721850Y-89583514D01*
X136721850Y-89583514D02*
X136959945Y-89488276D01*
X136578993Y-89773990D02*
X136721850Y-89583514D01*
X136721850Y-89583514D02*
X136864707Y-89773990D01*
X136721850Y-89345419D02*
X136721850Y-89583514D01*
X136483755Y-89488276D02*
X136721850Y-89583514D01*
X136721850Y-89583514D02*
X136959945Y-89488276D01*
X136578993Y-89773990D02*
X136721850Y-89583514D01*
X136721850Y-89583514D02*
X136864707Y-89773990D01*
X138938095Y-74594819D02*
X138938095Y-75404342D01*
X138938095Y-75404342D02*
X138985714Y-75499580D01*
X138985714Y-75499580D02*
X139033333Y-75547200D01*
X139033333Y-75547200D02*
X139128571Y-75594819D01*
X139128571Y-75594819D02*
X139319047Y-75594819D01*
X139319047Y-75594819D02*
X139414285Y-75547200D01*
X139414285Y-75547200D02*
X139461904Y-75499580D01*
X139461904Y-75499580D02*
X139509523Y-75404342D01*
X139509523Y-75404342D02*
X139509523Y-74594819D01*
X139938095Y-74690057D02*
X139985714Y-74642438D01*
X139985714Y-74642438D02*
X140080952Y-74594819D01*
X140080952Y-74594819D02*
X140319047Y-74594819D01*
X140319047Y-74594819D02*
X140414285Y-74642438D01*
X140414285Y-74642438D02*
X140461904Y-74690057D01*
X140461904Y-74690057D02*
X140509523Y-74785295D01*
X140509523Y-74785295D02*
X140509523Y-74880533D01*
X140509523Y-74880533D02*
X140461904Y-75023390D01*
X140461904Y-75023390D02*
X139890476Y-75594819D01*
X139890476Y-75594819D02*
X140509523Y-75594819D01*
X163917333Y-92528819D02*
X163584000Y-92052628D01*
X163345905Y-92528819D02*
X163345905Y-91528819D01*
X163345905Y-91528819D02*
X163726857Y-91528819D01*
X163726857Y-91528819D02*
X163822095Y-91576438D01*
X163822095Y-91576438D02*
X163869714Y-91624057D01*
X163869714Y-91624057D02*
X163917333Y-91719295D01*
X163917333Y-91719295D02*
X163917333Y-91862152D01*
X163917333Y-91862152D02*
X163869714Y-91957390D01*
X163869714Y-91957390D02*
X163822095Y-92005009D01*
X163822095Y-92005009D02*
X163726857Y-92052628D01*
X163726857Y-92052628D02*
X163345905Y-92052628D01*
X164250667Y-91528819D02*
X164917333Y-91528819D01*
X164917333Y-91528819D02*
X164488762Y-92528819D01*
X167981333Y-84656819D02*
X167648000Y-84180628D01*
X167409905Y-84656819D02*
X167409905Y-83656819D01*
X167409905Y-83656819D02*
X167790857Y-83656819D01*
X167790857Y-83656819D02*
X167886095Y-83704438D01*
X167886095Y-83704438D02*
X167933714Y-83752057D01*
X167933714Y-83752057D02*
X167981333Y-83847295D01*
X167981333Y-83847295D02*
X167981333Y-83990152D01*
X167981333Y-83990152D02*
X167933714Y-84085390D01*
X167933714Y-84085390D02*
X167886095Y-84133009D01*
X167886095Y-84133009D02*
X167790857Y-84180628D01*
X167790857Y-84180628D02*
X167409905Y-84180628D01*
X168886095Y-83656819D02*
X168409905Y-83656819D01*
X168409905Y-83656819D02*
X168362286Y-84133009D01*
X168362286Y-84133009D02*
X168409905Y-84085390D01*
X168409905Y-84085390D02*
X168505143Y-84037771D01*
X168505143Y-84037771D02*
X168743238Y-84037771D01*
X168743238Y-84037771D02*
X168838476Y-84085390D01*
X168838476Y-84085390D02*
X168886095Y-84133009D01*
X168886095Y-84133009D02*
X168933714Y-84228247D01*
X168933714Y-84228247D02*
X168933714Y-84466342D01*
X168933714Y-84466342D02*
X168886095Y-84561580D01*
X168886095Y-84561580D02*
X168838476Y-84609200D01*
X168838476Y-84609200D02*
X168743238Y-84656819D01*
X168743238Y-84656819D02*
X168505143Y-84656819D01*
X168505143Y-84656819D02*
X168409905Y-84609200D01*
X168409905Y-84609200D02*
X168362286Y-84561580D01*
X163917333Y-87956819D02*
X163584000Y-87480628D01*
X163345905Y-87956819D02*
X163345905Y-86956819D01*
X163345905Y-86956819D02*
X163726857Y-86956819D01*
X163726857Y-86956819D02*
X163822095Y-87004438D01*
X163822095Y-87004438D02*
X163869714Y-87052057D01*
X163869714Y-87052057D02*
X163917333Y-87147295D01*
X163917333Y-87147295D02*
X163917333Y-87290152D01*
X163917333Y-87290152D02*
X163869714Y-87385390D01*
X163869714Y-87385390D02*
X163822095Y-87433009D01*
X163822095Y-87433009D02*
X163726857Y-87480628D01*
X163726857Y-87480628D02*
X163345905Y-87480628D01*
X164250667Y-86956819D02*
X164869714Y-86956819D01*
X164869714Y-86956819D02*
X164536381Y-87337771D01*
X164536381Y-87337771D02*
X164679238Y-87337771D01*
X164679238Y-87337771D02*
X164774476Y-87385390D01*
X164774476Y-87385390D02*
X164822095Y-87433009D01*
X164822095Y-87433009D02*
X164869714Y-87528247D01*
X164869714Y-87528247D02*
X164869714Y-87766342D01*
X164869714Y-87766342D02*
X164822095Y-87861580D01*
X164822095Y-87861580D02*
X164774476Y-87909200D01*
X164774476Y-87909200D02*
X164679238Y-87956819D01*
X164679238Y-87956819D02*
X164393524Y-87956819D01*
X164393524Y-87956819D02*
X164298286Y-87909200D01*
X164298286Y-87909200D02*
X164250667Y-87861580D01*
X142581333Y-102688819D02*
X142248000Y-102212628D01*
X142009905Y-102688819D02*
X142009905Y-101688819D01*
X142009905Y-101688819D02*
X142390857Y-101688819D01*
X142390857Y-101688819D02*
X142486095Y-101736438D01*
X142486095Y-101736438D02*
X142533714Y-101784057D01*
X142533714Y-101784057D02*
X142581333Y-101879295D01*
X142581333Y-101879295D02*
X142581333Y-102022152D01*
X142581333Y-102022152D02*
X142533714Y-102117390D01*
X142533714Y-102117390D02*
X142486095Y-102165009D01*
X142486095Y-102165009D02*
X142390857Y-102212628D01*
X142390857Y-102212628D02*
X142009905Y-102212628D01*
X142962286Y-101784057D02*
X143009905Y-101736438D01*
X143009905Y-101736438D02*
X143105143Y-101688819D01*
X143105143Y-101688819D02*
X143343238Y-101688819D01*
X143343238Y-101688819D02*
X143438476Y-101736438D01*
X143438476Y-101736438D02*
X143486095Y-101784057D01*
X143486095Y-101784057D02*
X143533714Y-101879295D01*
X143533714Y-101879295D02*
X143533714Y-101974533D01*
X143533714Y-101974533D02*
X143486095Y-102117390D01*
X143486095Y-102117390D02*
X142914667Y-102688819D01*
X142914667Y-102688819D02*
X143533714Y-102688819D01*
X136993333Y-99388819D02*
X136660000Y-98912628D01*
X136421905Y-99388819D02*
X136421905Y-98388819D01*
X136421905Y-98388819D02*
X136802857Y-98388819D01*
X136802857Y-98388819D02*
X136898095Y-98436438D01*
X136898095Y-98436438D02*
X136945714Y-98484057D01*
X136945714Y-98484057D02*
X136993333Y-98579295D01*
X136993333Y-98579295D02*
X136993333Y-98722152D01*
X136993333Y-98722152D02*
X136945714Y-98817390D01*
X136945714Y-98817390D02*
X136898095Y-98865009D01*
X136898095Y-98865009D02*
X136802857Y-98912628D01*
X136802857Y-98912628D02*
X136421905Y-98912628D01*
X137945714Y-99388819D02*
X137374286Y-99388819D01*
X137660000Y-99388819D02*
X137660000Y-98388819D01*
X137660000Y-98388819D02*
X137564762Y-98531676D01*
X137564762Y-98531676D02*
X137469524Y-98626914D01*
X137469524Y-98626914D02*
X137374286Y-98674533D01*
X173905666Y-79370819D02*
X173905666Y-80085104D01*
X173905666Y-80085104D02*
X173858047Y-80227961D01*
X173858047Y-80227961D02*
X173762809Y-80323200D01*
X173762809Y-80323200D02*
X173619952Y-80370819D01*
X173619952Y-80370819D02*
X173524714Y-80370819D01*
X174810428Y-79704152D02*
X174810428Y-80370819D01*
X174572333Y-79323200D02*
X174334238Y-80037485D01*
X174334238Y-80037485D02*
X174953285Y-80037485D01*
X132710819Y-106505333D02*
X133425104Y-106505333D01*
X133425104Y-106505333D02*
X133567961Y-106552952D01*
X133567961Y-106552952D02*
X133663200Y-106648190D01*
X133663200Y-106648190D02*
X133710819Y-106791047D01*
X133710819Y-106791047D02*
X133710819Y-106886285D01*
X132710819Y-106124380D02*
X132710819Y-105505333D01*
X132710819Y-105505333D02*
X133091771Y-105838666D01*
X133091771Y-105838666D02*
X133091771Y-105695809D01*
X133091771Y-105695809D02*
X133139390Y-105600571D01*
X133139390Y-105600571D02*
X133187009Y-105552952D01*
X133187009Y-105552952D02*
X133282247Y-105505333D01*
X133282247Y-105505333D02*
X133520342Y-105505333D01*
X133520342Y-105505333D02*
X133615580Y-105552952D01*
X133615580Y-105552952D02*
X133663200Y-105600571D01*
X133663200Y-105600571D02*
X133710819Y-105695809D01*
X133710819Y-105695809D02*
X133710819Y-105981523D01*
X133710819Y-105981523D02*
X133663200Y-106076761D01*
X133663200Y-106076761D02*
X133615580Y-106124380D01*
X157856819Y-106505333D02*
X158571104Y-106505333D01*
X158571104Y-106505333D02*
X158713961Y-106552952D01*
X158713961Y-106552952D02*
X158809200Y-106648190D01*
X158809200Y-106648190D02*
X158856819Y-106791047D01*
X158856819Y-106791047D02*
X158856819Y-106886285D01*
X157952057Y-106076761D02*
X157904438Y-106029142D01*
X157904438Y-106029142D02*
X157856819Y-105933904D01*
X157856819Y-105933904D02*
X157856819Y-105695809D01*
X157856819Y-105695809D02*
X157904438Y-105600571D01*
X157904438Y-105600571D02*
X157952057Y-105552952D01*
X157952057Y-105552952D02*
X158047295Y-105505333D01*
X158047295Y-105505333D02*
X158142533Y-105505333D01*
X158142533Y-105505333D02*
X158285390Y-105552952D01*
X158285390Y-105552952D02*
X158856819Y-106124380D01*
X158856819Y-106124380D02*
X158856819Y-105505333D01*
X174926666Y-89276819D02*
X174926666Y-89991104D01*
X174926666Y-89991104D02*
X174879047Y-90133961D01*
X174879047Y-90133961D02*
X174783809Y-90229200D01*
X174783809Y-90229200D02*
X174640952Y-90276819D01*
X174640952Y-90276819D02*
X174545714Y-90276819D01*
X175926666Y-90276819D02*
X175355238Y-90276819D01*
X175640952Y-90276819D02*
X175640952Y-89276819D01*
X175640952Y-89276819D02*
X175545714Y-89419676D01*
X175545714Y-89419676D02*
X175450476Y-89514914D01*
X175450476Y-89514914D02*
X175355238Y-89562533D01*
X163345905Y-76020819D02*
X163345905Y-75020819D01*
X163345905Y-75020819D02*
X163584000Y-75020819D01*
X163584000Y-75020819D02*
X163726857Y-75068438D01*
X163726857Y-75068438D02*
X163822095Y-75163676D01*
X163822095Y-75163676D02*
X163869714Y-75258914D01*
X163869714Y-75258914D02*
X163917333Y-75449390D01*
X163917333Y-75449390D02*
X163917333Y-75592247D01*
X163917333Y-75592247D02*
X163869714Y-75782723D01*
X163869714Y-75782723D02*
X163822095Y-75877961D01*
X163822095Y-75877961D02*
X163726857Y-75973200D01*
X163726857Y-75973200D02*
X163584000Y-76020819D01*
X163584000Y-76020819D02*
X163345905Y-76020819D01*
X164298286Y-75116057D02*
X164345905Y-75068438D01*
X164345905Y-75068438D02*
X164441143Y-75020819D01*
X164441143Y-75020819D02*
X164679238Y-75020819D01*
X164679238Y-75020819D02*
X164774476Y-75068438D01*
X164774476Y-75068438D02*
X164822095Y-75116057D01*
X164822095Y-75116057D02*
X164869714Y-75211295D01*
X164869714Y-75211295D02*
X164869714Y-75306533D01*
X164869714Y-75306533D02*
X164822095Y-75449390D01*
X164822095Y-75449390D02*
X164250667Y-76020819D01*
X164250667Y-76020819D02*
X164869714Y-76020819D01*
X167409905Y-76020819D02*
X167409905Y-75020819D01*
X167409905Y-75020819D02*
X167648000Y-75020819D01*
X167648000Y-75020819D02*
X167790857Y-75068438D01*
X167790857Y-75068438D02*
X167886095Y-75163676D01*
X167886095Y-75163676D02*
X167933714Y-75258914D01*
X167933714Y-75258914D02*
X167981333Y-75449390D01*
X167981333Y-75449390D02*
X167981333Y-75592247D01*
X167981333Y-75592247D02*
X167933714Y-75782723D01*
X167933714Y-75782723D02*
X167886095Y-75877961D01*
X167886095Y-75877961D02*
X167790857Y-75973200D01*
X167790857Y-75973200D02*
X167648000Y-76020819D01*
X167648000Y-76020819D02*
X167409905Y-76020819D01*
X168933714Y-76020819D02*
X168362286Y-76020819D01*
X168648000Y-76020819D02*
X168648000Y-75020819D01*
X168648000Y-75020819D02*
X168552762Y-75163676D01*
X168552762Y-75163676D02*
X168457524Y-75258914D01*
X168457524Y-75258914D02*
X168362286Y-75306533D01*
X163917333Y-100083580D02*
X163869714Y-100131200D01*
X163869714Y-100131200D02*
X163726857Y-100178819D01*
X163726857Y-100178819D02*
X163631619Y-100178819D01*
X163631619Y-100178819D02*
X163488762Y-100131200D01*
X163488762Y-100131200D02*
X163393524Y-100035961D01*
X163393524Y-100035961D02*
X163345905Y-99940723D01*
X163345905Y-99940723D02*
X163298286Y-99750247D01*
X163298286Y-99750247D02*
X163298286Y-99607390D01*
X163298286Y-99607390D02*
X163345905Y-99416914D01*
X163345905Y-99416914D02*
X163393524Y-99321676D01*
X163393524Y-99321676D02*
X163488762Y-99226438D01*
X163488762Y-99226438D02*
X163631619Y-99178819D01*
X163631619Y-99178819D02*
X163726857Y-99178819D01*
X163726857Y-99178819D02*
X163869714Y-99226438D01*
X163869714Y-99226438D02*
X163917333Y-99274057D01*
X164774476Y-99512152D02*
X164774476Y-100178819D01*
X164536381Y-99131200D02*
X164298286Y-99845485D01*
X164298286Y-99845485D02*
X164917333Y-99845485D01*
X163917333Y-96527580D02*
X163869714Y-96575200D01*
X163869714Y-96575200D02*
X163726857Y-96622819D01*
X163726857Y-96622819D02*
X163631619Y-96622819D01*
X163631619Y-96622819D02*
X163488762Y-96575200D01*
X163488762Y-96575200D02*
X163393524Y-96479961D01*
X163393524Y-96479961D02*
X163345905Y-96384723D01*
X163345905Y-96384723D02*
X163298286Y-96194247D01*
X163298286Y-96194247D02*
X163298286Y-96051390D01*
X163298286Y-96051390D02*
X163345905Y-95860914D01*
X163345905Y-95860914D02*
X163393524Y-95765676D01*
X163393524Y-95765676D02*
X163488762Y-95670438D01*
X163488762Y-95670438D02*
X163631619Y-95622819D01*
X163631619Y-95622819D02*
X163726857Y-95622819D01*
X163726857Y-95622819D02*
X163869714Y-95670438D01*
X163869714Y-95670438D02*
X163917333Y-95718057D01*
X164250667Y-95622819D02*
X164869714Y-95622819D01*
X164869714Y-95622819D02*
X164536381Y-96003771D01*
X164536381Y-96003771D02*
X164679238Y-96003771D01*
X164679238Y-96003771D02*
X164774476Y-96051390D01*
X164774476Y-96051390D02*
X164822095Y-96099009D01*
X164822095Y-96099009D02*
X164869714Y-96194247D01*
X164869714Y-96194247D02*
X164869714Y-96432342D01*
X164869714Y-96432342D02*
X164822095Y-96527580D01*
X164822095Y-96527580D02*
X164774476Y-96575200D01*
X164774476Y-96575200D02*
X164679238Y-96622819D01*
X164679238Y-96622819D02*
X164393524Y-96622819D01*
X164393524Y-96622819D02*
X164298286Y-96575200D01*
X164298286Y-96575200D02*
X164250667Y-96527580D01*
X152233333Y-75895580D02*
X152185714Y-75943200D01*
X152185714Y-75943200D02*
X152042857Y-75990819D01*
X152042857Y-75990819D02*
X151947619Y-75990819D01*
X151947619Y-75990819D02*
X151804762Y-75943200D01*
X151804762Y-75943200D02*
X151709524Y-75847961D01*
X151709524Y-75847961D02*
X151661905Y-75752723D01*
X151661905Y-75752723D02*
X151614286Y-75562247D01*
X151614286Y-75562247D02*
X151614286Y-75419390D01*
X151614286Y-75419390D02*
X151661905Y-75228914D01*
X151661905Y-75228914D02*
X151709524Y-75133676D01*
X151709524Y-75133676D02*
X151804762Y-75038438D01*
X151804762Y-75038438D02*
X151947619Y-74990819D01*
X151947619Y-74990819D02*
X152042857Y-74990819D01*
X152042857Y-74990819D02*
X152185714Y-75038438D01*
X152185714Y-75038438D02*
X152233333Y-75086057D01*
X152614286Y-75086057D02*
X152661905Y-75038438D01*
X152661905Y-75038438D02*
X152757143Y-74990819D01*
X152757143Y-74990819D02*
X152995238Y-74990819D01*
X152995238Y-74990819D02*
X153090476Y-75038438D01*
X153090476Y-75038438D02*
X153138095Y-75086057D01*
X153138095Y-75086057D02*
X153185714Y-75181295D01*
X153185714Y-75181295D02*
X153185714Y-75276533D01*
X153185714Y-75276533D02*
X153138095Y-75419390D01*
X153138095Y-75419390D02*
X152566667Y-75990819D01*
X152566667Y-75990819D02*
X153185714Y-75990819D01*
X148169333Y-75895580D02*
X148121714Y-75943200D01*
X148121714Y-75943200D02*
X147978857Y-75990819D01*
X147978857Y-75990819D02*
X147883619Y-75990819D01*
X147883619Y-75990819D02*
X147740762Y-75943200D01*
X147740762Y-75943200D02*
X147645524Y-75847961D01*
X147645524Y-75847961D02*
X147597905Y-75752723D01*
X147597905Y-75752723D02*
X147550286Y-75562247D01*
X147550286Y-75562247D02*
X147550286Y-75419390D01*
X147550286Y-75419390D02*
X147597905Y-75228914D01*
X147597905Y-75228914D02*
X147645524Y-75133676D01*
X147645524Y-75133676D02*
X147740762Y-75038438D01*
X147740762Y-75038438D02*
X147883619Y-74990819D01*
X147883619Y-74990819D02*
X147978857Y-74990819D01*
X147978857Y-74990819D02*
X148121714Y-75038438D01*
X148121714Y-75038438D02*
X148169333Y-75086057D01*
X149121714Y-75990819D02*
X148550286Y-75990819D01*
X148836000Y-75990819D02*
X148836000Y-74990819D01*
X148836000Y-74990819D02*
X148740762Y-75133676D01*
X148740762Y-75133676D02*
X148645524Y-75228914D01*
X148645524Y-75228914D02*
X148550286Y-75276533D01*
X130786285Y-84160009D02*
X130929142Y-84207628D01*
X130929142Y-84207628D02*
X130976761Y-84255247D01*
X130976761Y-84255247D02*
X131024380Y-84350485D01*
X131024380Y-84350485D02*
X131024380Y-84493342D01*
X131024380Y-84493342D02*
X130976761Y-84588580D01*
X130976761Y-84588580D02*
X130929142Y-84636200D01*
X130929142Y-84636200D02*
X130833904Y-84683819D01*
X130833904Y-84683819D02*
X130452952Y-84683819D01*
X130452952Y-84683819D02*
X130452952Y-83683819D01*
X130452952Y-83683819D02*
X130786285Y-83683819D01*
X130786285Y-83683819D02*
X130881523Y-83731438D01*
X130881523Y-83731438D02*
X130929142Y-83779057D01*
X130929142Y-83779057D02*
X130976761Y-83874295D01*
X130976761Y-83874295D02*
X130976761Y-83969533D01*
X130976761Y-83969533D02*
X130929142Y-84064771D01*
X130929142Y-84064771D02*
X130881523Y-84112390D01*
X130881523Y-84112390D02*
X130786285Y-84160009D01*
X130786285Y-84160009D02*
X130452952Y-84160009D01*
X131310095Y-83683819D02*
X131881523Y-83683819D01*
X131595809Y-84683819D02*
X131595809Y-83683819D01*
X132738666Y-84683819D02*
X132167238Y-84683819D01*
X132452952Y-84683819D02*
X132452952Y-83683819D01*
X132452952Y-83683819D02*
X132357714Y-83826676D01*
X132357714Y-83826676D02*
X132262476Y-83921914D01*
X132262476Y-83921914D02*
X132167238Y-83969533D01*
%TO.C,U4*%
D11*
X149916000Y-84892000D02*
X149916000Y-84997000D01*
X149916000Y-91892000D02*
X149916000Y-91787000D01*
X156916000Y-84892000D02*
X156916000Y-84997000D01*
X156916000Y-91892000D02*
X156916000Y-91787000D01*
X149916000Y-84892000D02*
X150021000Y-84892000D01*
X149916000Y-91892000D02*
X150021000Y-91892000D01*
X156916000Y-84892000D02*
X156811000Y-84892000D01*
X156916000Y-91892000D02*
X156811000Y-91892000D01*
D12*
X147676000Y-85592000D02*
G75*
G02*
X147476000Y-85592000I-100000J0D01*
G01*
X147476000Y-85592000D02*
G75*
G02*
X147676000Y-85592000I100000J0D01*
G01*
D13*
%TO.C,U1*%
X136110000Y-83860000D02*
X135770000Y-83390000D01*
X136450000Y-83390000D01*
X136110000Y-83860000D01*
G36*
X136110000Y-83860000D02*
G01*
X135770000Y-83390000D01*
X136450000Y-83390000D01*
X136110000Y-83860000D01*
G37*
X142460000Y-89120000D02*
X136940000Y-89120000D01*
X142460000Y-88850000D02*
X142460000Y-89120000D01*
X142460000Y-83600000D02*
X142460000Y-83870000D01*
X136940000Y-89120000D02*
X136940000Y-88850000D01*
X136940000Y-83870000D02*
X136940000Y-83600000D01*
X136940000Y-83600000D02*
X142460000Y-83600000D01*
%TO.C,C5*%
X156710748Y-77951000D02*
X157233252Y-77951000D01*
X156710748Y-76481000D02*
X157233252Y-76481000D01*
%TO.C,R4*%
X163856936Y-82015000D02*
X164311064Y-82015000D01*
X163856936Y-80545000D02*
X164311064Y-80545000D01*
%TO.C,R6*%
X167920936Y-82015000D02*
X168375064Y-82015000D01*
X167920936Y-80545000D02*
X168375064Y-80545000D01*
%TO.C,Y2*%
X148806000Y-96184000D02*
X148806000Y-99904000D01*
X148806000Y-99904000D02*
X156176000Y-99904000D01*
X156176000Y-96184000D02*
X148806000Y-96184000D01*
%TO.C,Y1*%
X129712000Y-101638000D02*
X133432000Y-101638000D01*
X133432000Y-101638000D02*
X133432000Y-94268000D01*
X129712000Y-94268000D02*
X129712000Y-101638000D01*
%TO.C,U3*%
D14*
X137579100Y-96100900D02*
X141820900Y-96100900D01*
X141820900Y-90843100D02*
X137579100Y-90843100D01*
%TO.C,U2*%
D13*
X136940000Y-75980000D02*
X142460000Y-75980000D01*
X136940000Y-76250000D02*
X136940000Y-75980000D01*
X136940000Y-81500000D02*
X136940000Y-81230000D01*
X142460000Y-75980000D02*
X142460000Y-76250000D01*
X142460000Y-81230000D02*
X142460000Y-81500000D01*
X142460000Y-81500000D02*
X136940000Y-81500000D01*
X136110000Y-76240000D02*
X135770000Y-75770000D01*
X136450000Y-75770000D01*
X136110000Y-76240000D01*
G36*
X136110000Y-76240000D02*
G01*
X135770000Y-75770000D01*
X136450000Y-75770000D01*
X136110000Y-76240000D01*
G37*
%TO.C,R7*%
X164311064Y-91159000D02*
X163856936Y-91159000D01*
X164311064Y-89689000D02*
X163856936Y-89689000D01*
%TO.C,R5*%
X167920936Y-85117000D02*
X168375064Y-85117000D01*
X167920936Y-86587000D02*
X168375064Y-86587000D01*
%TO.C,R3*%
X164311064Y-86587000D02*
X163856936Y-86587000D01*
X164311064Y-85117000D02*
X163856936Y-85117000D01*
%TO.C,R2*%
X142975064Y-101319000D02*
X142520936Y-101319000D01*
X142975064Y-99849000D02*
X142520936Y-99849000D01*
%TO.C,R1*%
X136932936Y-99849000D02*
X137387064Y-99849000D01*
X136932936Y-101319000D02*
X137387064Y-101319000D01*
%TO.C,J4*%
X171589000Y-80916000D02*
X172969000Y-80916000D01*
X171589000Y-82296000D02*
X171589000Y-80916000D01*
X171589000Y-83566000D02*
X171589000Y-88756000D01*
X171589000Y-83566000D02*
X174239000Y-83566000D01*
X171589000Y-88756000D02*
X176889000Y-88756000D01*
X174239000Y-80916000D02*
X176889000Y-80916000D01*
X174239000Y-83566000D02*
X174239000Y-80916000D01*
X176889000Y-80916000D02*
X176889000Y-88756000D01*
%TO.C,J3*%
X134256000Y-107552000D02*
X134256000Y-106172000D01*
X135636000Y-107552000D02*
X134256000Y-107552000D01*
X136906000Y-107552000D02*
X157336000Y-107552000D01*
X136906000Y-107552000D02*
X136906000Y-104792000D01*
X157336000Y-107552000D02*
X157336000Y-104792000D01*
X136906000Y-104792000D02*
X157336000Y-104792000D01*
%TO.C,J2*%
X159402000Y-107552000D02*
X159402000Y-106172000D01*
X160782000Y-107552000D02*
X159402000Y-107552000D01*
X162052000Y-107552000D02*
X169782000Y-107552000D01*
X162052000Y-107552000D02*
X162052000Y-104792000D01*
X169782000Y-107552000D02*
X169782000Y-104792000D01*
X162052000Y-104792000D02*
X169782000Y-104792000D01*
%TO.C,J1*%
X173880000Y-90822000D02*
X175260000Y-90822000D01*
X173880000Y-92202000D02*
X173880000Y-90822000D01*
X173880000Y-93472000D02*
X173880000Y-101202000D01*
X173880000Y-93472000D02*
X176640000Y-93472000D01*
X173880000Y-101202000D02*
X176640000Y-101202000D01*
X176640000Y-93472000D02*
X176640000Y-101202000D01*
%TO.C,D2*%
X162399000Y-76256000D02*
X162399000Y-78176000D01*
X162399000Y-78176000D02*
X165084000Y-78176000D01*
X165084000Y-76256000D02*
X162399000Y-76256000D01*
%TO.C,D1*%
X166463000Y-76256000D02*
X166463000Y-78176000D01*
X166463000Y-78176000D02*
X169148000Y-78176000D01*
X169148000Y-76256000D02*
X166463000Y-76256000D01*
%TO.C,C4*%
X164345252Y-98779000D02*
X163822748Y-98779000D01*
X164345252Y-97309000D02*
X163822748Y-97309000D01*
%TO.C,C3*%
X164345252Y-95223000D02*
X163822748Y-95223000D01*
X164345252Y-93753000D02*
X163822748Y-93753000D01*
%TO.C,C2*%
X152138748Y-76481000D02*
X152661252Y-76481000D01*
X152138748Y-77951000D02*
X152661252Y-77951000D01*
%TO.C,C1*%
X148074748Y-76481000D02*
X148597252Y-76481000D01*
X148074748Y-77951000D02*
X148597252Y-77951000D01*
%TO.C,BT1*%
X130192000Y-85229000D02*
X131572000Y-85229000D01*
X130192000Y-86609000D02*
X130192000Y-85229000D01*
X130192000Y-87879000D02*
X130192000Y-90529000D01*
X130192000Y-87879000D02*
X132952000Y-87879000D01*
X130192000Y-90529000D02*
X132952000Y-90529000D01*
X132952000Y-87879000D02*
X132952000Y-90529000D01*
%TD*%
M02*
